{"glyphs":{"0":{"ha":903,"x_min":49,"x_max":854,"o":"m 149 906 q 451 1028 247 1028 q 755 906 655 1028 q 854 507 854 784 q 755 109 854 231 q 451 -14 655 -14 q 148 109 247 -14 q 49 507 49 231 q 149 906 49 784 m 330 241 q 451 165 368 165 q 574 241 534 165 q 614 507 614 317 q 574 772 614 696 q 451 849 534 849 q 328 772 368 849 q 289 507 289 696 q 330 241 289 317 z "},"1":{"ha":903,"x_min":134,"x_max":648,"o":"m 403 1015 l 648 1015 l 648 0 l 403 0 l 403 754 l 401 754 l 134 560 l 134 819 l 403 1015 z "},"2":{"ha":903,"x_min":109,"x_max":803,"o":"m 419 193 l 419 190 l 803 190 l 803 0 l 109 0 l 109 190 q 469 503 382 400 q 556 704 556 606 q 414 831 556 831 q 129 754 300 831 l 129 970 q 449 1028 279 1028 q 708 948 617 1028 q 799 727 799 868 q 722 492 799 604 q 419 193 644 381 z "},"3":{"ha":903,"x_min":118,"x_max":817,"o":"m 425 -14 q 118 39 256 -14 l 118 244 q 414 176 275 176 q 541 210 498 176 q 585 302 585 243 q 526 397 585 368 q 312 426 468 426 l 252 426 l 252 612 l 312 612 q 513 644 453 612 q 574 741 574 675 q 408 837 574 837 q 127 769 277 837 l 127 975 q 444 1028 270 1028 q 705 960 610 1028 q 800 783 800 891 q 753 624 800 682 q 598 533 707 566 l 598 530 q 760 456 704 517 q 817 292 817 395 q 713 68 817 149 q 425 -14 610 -14 z "},"4":{"ha":903,"x_min":16,"x_max":841,"o":"m 468 380 l 468 728 l 465 728 l 225 382 l 225 380 l 468 380 m 693 380 l 841 380 l 841 194 l 693 194 l 693 0 l 468 0 l 468 194 l 16 194 l 16 380 l 468 1015 l 693 1015 l 693 380 z "},"5":{"ha":903,"x_min":119,"x_max":811,"o":"m 487 662 q 727 580 643 662 q 811 345 811 498 q 387 -14 811 -14 q 122 24 245 -14 l 122 225 q 377 174 269 174 q 581 345 581 174 q 442 483 581 483 q 321 430 381 483 l 119 430 l 148 1015 l 765 1015 l 765 823 l 359 823 l 350 635 l 354 635 q 487 662 418 662 z "},"6":{"ha":903,"x_min":62,"x_max":845,"o":"m 735 1000 l 735 817 q 525 857 632 857 q 367 797 427 857 q 293 621 307 736 l 296 620 q 503 681 374 681 q 756 595 667 681 q 845 347 845 509 q 741 82 845 178 q 454 -14 636 -14 q 165 101 267 -14 q 62 445 62 216 q 180 882 62 736 q 517 1028 298 1028 q 735 1000 625 1028 m 454 157 q 575 205 532 157 q 618 343 618 252 q 574 475 618 429 q 454 522 530 522 q 335 474 380 522 q 290 343 290 426 q 336 206 290 255 q 454 157 381 157 z "},"7":{"ha":903,"x_min":98,"x_max":810,"o":"m 98 1015 l 810 1015 l 810 823 q 608 440 693 629 q 441 0 524 251 l 187 0 q 586 818 353 450 l 586 823 l 98 823 l 98 1015 z "},"8":{"ha":903,"x_min":49,"x_max":854,"o":"m 823 768 q 651 548 823 636 l 651 545 q 854 278 854 463 q 748 65 854 144 q 452 -14 642 -14 q 155 65 262 -14 q 49 278 49 144 q 241 519 49 430 l 241 522 q 79 768 79 613 q 178 955 79 882 q 452 1028 277 1028 q 725 955 627 1028 q 823 768 823 882 m 461 609 q 569 669 537 636 q 601 746 601 703 q 561 830 601 798 q 452 863 521 863 q 344 830 384 863 q 304 746 304 798 q 339 668 304 701 q 461 609 374 635 m 427 448 q 311 376 345 414 q 278 289 278 339 q 326 191 278 229 q 451 152 374 152 q 576 191 528 152 q 624 289 624 229 q 585 378 624 345 q 427 448 545 411 z "},"9":{"ha":903,"x_min":58,"x_max":841,"o":"m 155 197 q 378 157 263 157 q 544 217 484 157 q 610 393 604 277 l 606 395 q 400 334 528 334 q 146 422 235 334 q 58 681 58 511 q 163 935 58 841 q 449 1028 269 1028 q 739 916 636 1028 q 841 583 841 803 q 387 -14 841 -14 q 155 14 273 -14 l 155 197 m 449 857 q 328 811 372 857 q 285 685 285 765 q 328 540 285 589 q 449 491 370 491 q 569 541 525 491 q 613 685 613 591 q 567 810 613 762 q 449 857 521 857 z "}," ":{"ha":404,"x_min":0,"x_max":0,"o":""},",":{"ha":511,"x_min":71,"x_max":426,"o":"m 159 264 l 426 264 l 266 -153 l 71 -153 l 159 264 z "},".":{"ha":503,"x_min":119,"x_max":384,"o":"m 119 0 l 119 264 l 384 264 l 384 0 l 119 0 z "},":":{"ha":614,"x_min":175,"x_max":439,"o":"m 175 524 l 175 788 l 439 788 l 439 524 l 175 524 m 175 0 l 175 264 l 439 264 l 439 0 l 175 0 z "},";":{"ha":623,"x_min":99,"x_max":454,"o":"m 99 -153 l 186 264 l 454 264 l 293 -153 l 99 -153 m 186 524 l 186 788 l 450 788 l 450 524 l 186 524 z "},"A":{"ha":967,"x_min":30,"x_max":937,"o":"m 30 0 l 358 1015 l 609 1015 l 937 0 l 686 0 l 631 220 l 331 220 l 275 0 l 30 0 m 374 399 l 586 399 l 481 810 l 479 810 l 374 399 z "},"B":{"ha":876,"x_min":106,"x_max":833,"o":"m 338 613 l 384 613 q 538 641 491 613 q 586 727 586 669 q 547 808 586 783 q 416 834 509 834 l 338 834 l 338 613 m 338 444 l 338 179 l 420 179 q 566 213 521 179 q 612 323 612 247 q 564 414 612 385 q 403 444 515 444 l 338 444 m 833 298 q 728 72 833 144 q 384 0 624 0 l 106 0 l 106 1015 l 369 1015 q 699 951 597 1015 q 800 761 800 887 q 745 616 800 675 q 591 540 689 557 l 591 537 q 768 458 703 524 q 833 298 833 392 z "},"C":{"ha":898,"x_min":43,"x_max":799,"o":"m 285 507 q 360 261 285 349 q 560 174 435 174 q 799 218 671 174 l 799 18 q 532 -14 673 -14 q 174 121 304 -14 q 43 507 43 255 q 170 891 43 754 q 522 1028 296 1028 q 787 996 669 1028 l 787 793 q 551 837 658 837 q 355 753 425 837 q 285 507 285 669 z "},"D":{"ha":959,"x_min":106,"x_max":916,"o":"m 916 521 q 775 134 916 267 q 373 0 635 0 l 106 0 l 106 1015 l 373 1015 q 775 885 635 1015 q 916 521 916 755 m 690 521 q 616 755 690 681 q 397 829 543 829 l 336 829 l 336 184 l 397 184 q 618 264 545 184 q 690 521 690 343 z "},"E":{"ha":845,"x_min":106,"x_max":753,"o":"m 342 823 l 342 617 l 726 617 l 726 438 l 342 438 l 342 190 l 753 190 l 753 0 l 106 0 l 106 1015 l 753 1015 l 753 823 l 342 823 z "},"F":{"ha":825,"x_min":106,"x_max":741,"o":"m 106 1015 l 741 1015 l 741 823 l 342 823 l 342 593 l 712 593 l 712 415 l 342 415 l 342 0 l 106 0 l 106 1015 z "},"G":{"ha":993,"x_min":43,"x_max":894,"o":"m 567 1028 q 842 996 716 1028 l 842 802 q 594 841 707 841 q 283 507 283 841 q 357 257 283 340 q 571 174 431 174 q 671 187 628 174 l 671 438 l 450 438 l 450 617 l 894 617 l 894 45 q 557 -14 739 -14 q 184 125 324 -14 q 43 507 43 263 q 180 890 43 753 q 567 1028 317 1028 z "},"H":{"ha":994,"x_min":106,"x_max":888,"o":"m 652 438 l 342 438 l 342 0 l 106 0 l 106 1015 l 342 1015 l 342 617 l 652 617 l 652 1015 l 888 1015 l 888 0 l 652 0 l 652 438 z "},"I":{"ha":511,"x_min":126,"x_max":385,"o":"m 126 0 l 126 1015 l 385 1015 l 385 0 l 126 0 z "},"J":{"ha":798,"x_min":43,"x_max":705,"o":"m 43 33 l 43 237 q 297 176 172 176 q 422 228 382 176 q 463 403 463 279 l 463 1015 l 705 1015 l 705 370 q 616 76 705 165 q 331 -14 528 -14 q 43 33 172 -14 z "},"K":{"ha":947,"x_min":106,"x_max":911,"o":"m 342 1015 l 342 579 l 345 579 l 625 1015 l 898 1015 l 564 528 l 911 0 l 639 0 l 345 476 l 342 476 l 342 0 l 106 0 l 106 1015 l 342 1015 z "},"L":{"ha":849,"x_min":106,"x_max":777,"o":"m 349 1015 l 349 195 l 777 195 l 777 0 l 106 0 l 106 1015 l 349 1015 z "},"M":{"ha":1175,"x_min":50,"x_max":1124,"o":"m 844 712 l 841 712 l 705 0 l 464 0 l 330 712 l 327 712 l 278 0 l 50 0 l 164 1015 l 446 1015 l 586 240 l 589 240 l 730 1015 l 1010 1015 l 1124 0 l 891 0 l 844 712 z "},"N":{"ha":994,"x_min":106,"x_max":888,"o":"m 106 0 l 106 1015 l 332 1015 l 659 392 l 662 392 l 662 1015 l 888 1015 l 888 0 l 662 0 l 335 623 l 332 623 l 332 0 l 106 0 z "},"O":{"ha":1036,"x_min":43,"x_max":993,"o":"m 751 507 q 518 833 751 833 q 285 507 285 833 q 518 180 285 180 q 751 507 751 180 m 865 125 q 518 -14 738 -14 q 171 125 298 -14 q 43 507 43 263 q 171 890 43 751 q 518 1028 298 1028 q 865 890 738 1028 q 993 507 993 751 q 865 125 993 263 z "},"P":{"ha":891,"x_min":106,"x_max":856,"o":"m 338 340 l 338 0 l 106 0 l 106 1015 l 384 1015 q 743 936 629 1015 q 856 697 856 857 q 449 340 856 340 l 338 340 m 338 514 l 425 514 q 581 557 528 514 q 635 684 635 600 q 585 798 635 761 q 425 834 536 834 l 338 834 l 338 514 z "},"Q":{"ha":1081,"x_min":43,"x_max":1100,"o":"m 517 833 q 285 507 285 833 q 517 180 285 180 q 750 507 750 180 q 517 833 750 833 m 517 -14 q 170 125 297 -14 q 43 507 43 263 q 170 890 43 751 q 517 1028 297 1028 q 864 890 736 1028 q 991 507 991 751 q 795 75 991 217 l 795 72 q 971 -46 888 31 q 1100 -209 1054 -123 l 846 -209 q 715 -47 772 -80 q 517 -14 659 -14 z "},"R":{"ha":929,"x_min":106,"x_max":879,"o":"m 425 834 l 338 834 l 338 548 l 415 548 q 564 589 513 548 q 616 701 616 629 q 572 802 616 770 q 425 834 528 834 m 338 374 l 338 0 l 106 0 l 106 1015 l 411 1015 q 747 943 643 1015 q 852 726 852 871 q 797 558 852 633 q 654 453 742 483 l 654 450 q 772 285 727 410 l 879 0 l 636 0 l 540 275 q 493 354 521 334 q 407 374 465 374 l 338 374 z "},"S":{"ha":830,"x_min":71,"x_max":760,"o":"m 728 773 q 437 846 583 846 q 308 746 308 846 q 419 625 308 661 q 686 489 612 567 q 760 285 760 411 q 384 -14 760 -14 q 96 58 222 -14 l 96 259 q 369 171 227 171 q 481 199 444 171 q 519 281 519 228 q 493 356 519 327 q 401 406 467 385 q 149 544 227 461 q 71 746 71 627 q 161 952 71 876 q 422 1028 252 1028 q 728 972 598 1028 l 728 773 z "},"T":{"ha":920,"x_min":71,"x_max":849,"o":"m 849 1015 l 849 818 l 581 818 l 581 0 l 339 0 l 339 818 l 71 818 l 71 1015 l 849 1015 z "},"U":{"ha":962,"x_min":92,"x_max":869,"o":"m 331 1015 l 331 351 q 367 216 331 256 q 484 176 403 176 q 600 216 564 176 q 636 351 636 256 l 636 1015 l 869 1015 l 869 368 q 481 -14 869 -14 q 92 368 92 -14 l 92 1015 l 331 1015 z "},"V":{"ha":967,"x_min":30,"x_max":937,"o":"m 281 1015 l 481 227 l 484 227 l 692 1015 l 937 1015 l 609 0 l 358 0 l 30 1015 l 281 1015 z "},"W":{"ha":1267,"x_min":50,"x_max":1217,"o":"m 289 1015 l 395 240 l 397 240 l 494 1015 l 779 1015 l 875 240 l 878 240 l 983 1015 l 1217 1015 l 1016 0 l 741 0 l 635 773 l 632 773 l 526 0 l 251 0 l 50 1015 l 289 1015 z "},"X":{"ha":962,"x_min":64,"x_max":898,"o":"m 479 378 l 476 378 l 324 0 l 64 0 l 324 514 l 71 1015 l 331 1015 l 481 650 l 484 650 l 636 1015 l 890 1015 l 637 514 l 898 0 l 632 0 l 479 378 z "},"Y":{"ha":962,"x_min":30,"x_max":932,"o":"m 298 1015 l 481 579 l 484 579 l 669 1015 l 932 1015 l 601 389 l 601 0 l 358 0 l 358 389 l 30 1015 l 298 1015 z "},"Z":{"ha":886,"x_min":92,"x_max":795,"o":"m 92 1015 l 795 1015 l 795 823 l 368 193 l 368 190 l 795 190 l 795 0 l 92 0 l 92 190 l 518 821 l 518 823 l 92 823 l 92 1015 z "},"a":{"ha":804,"x_min":57,"x_max":719,"o":"m 387 736 q 644 671 568 736 q 719 454 719 605 l 719 0 l 510 0 l 507 96 l 505 96 q 277 -14 418 -14 q 119 48 180 -14 q 57 209 57 110 q 431 461 57 461 l 495 461 l 495 479 q 468 555 495 532 q 377 579 441 579 q 99 533 258 579 l 99 694 q 387 736 244 736 m 495 331 l 431 331 q 263 227 263 331 q 285 168 263 189 q 345 146 307 146 q 453 189 411 146 q 495 301 495 231 l 495 331 z "},"b":{"ha":865,"x_min":99,"x_max":815,"o":"m 323 1042 l 323 650 l 326 650 q 533 736 419 736 q 739 639 662 736 q 815 361 815 541 q 736 85 815 184 q 533 -14 656 -14 q 312 92 403 -14 l 309 92 l 307 0 l 99 0 l 99 1042 l 323 1042 m 595 361 q 457 570 595 570 q 359 532 401 570 q 317 448 317 495 l 317 275 q 359 191 317 228 q 457 153 401 153 q 558 204 521 153 q 595 361 595 255 z "},"c":{"ha":726,"x_min":43,"x_max":640,"o":"m 43 361 q 136 640 43 543 q 400 736 228 736 q 629 711 518 736 l 629 538 q 435 568 528 568 q 317 519 355 568 q 279 361 279 469 q 320 202 279 250 q 449 155 361 155 q 640 184 541 155 l 640 14 q 414 -14 526 -14 q 139 81 235 -14 q 43 361 43 175 z "},"d":{"ha":865,"x_min":50,"x_max":766,"o":"m 543 1042 l 766 1042 l 766 0 l 559 0 l 556 92 l 553 92 q 332 -14 463 -14 q 130 85 209 -14 q 50 361 50 184 q 127 639 50 541 q 332 736 203 736 q 540 650 446 736 l 543 650 l 543 1042 m 270 361 q 307 204 270 255 q 408 153 345 153 q 505 191 464 153 q 547 275 547 228 l 547 448 q 505 532 547 495 q 408 570 464 570 q 270 361 270 570 z "},"e":{"ha":784,"x_min":43,"x_max":734,"o":"m 266 429 l 524 429 q 401 585 522 585 q 304 549 336 585 q 266 429 273 514 m 266 296 q 323 177 275 213 q 469 141 370 141 q 680 180 547 141 l 680 19 q 437 -14 552 -14 q 145 82 247 -14 q 43 361 43 178 q 134 640 43 543 q 397 736 225 736 q 734 363 734 736 q 728 296 734 335 l 266 296 z "},"f":{"ha":755,"x_min":64,"x_max":671,"o":"m 64 537 l 64 694 l 217 694 l 217 732 q 287 957 217 886 q 507 1028 357 1028 q 671 1006 591 1028 l 671 845 q 563 865 613 865 q 472 839 495 865 q 449 734 449 812 l 449 694 l 656 694 l 656 537 l 449 537 l 449 0 l 217 0 l 217 537 l 64 537 z "},"g":{"ha":765,"x_min":30,"x_max":730,"o":"m 730 -53 q 627 -248 730 -176 q 335 -320 525 -320 q 39 -264 186 -320 l 39 -94 q 335 -163 178 -163 q 460 -137 416 -163 q 505 -68 505 -111 q 346 3 505 3 q 121 38 184 3 q 57 152 57 73 q 115 279 57 205 q 30 469 30 350 q 104 663 30 589 q 298 736 179 736 q 518 642 439 736 l 521 642 l 522 722 l 724 722 l 724 463 q 640 269 724 332 q 377 205 556 205 q 264 214 312 205 q 247 180 247 193 q 273 153 247 161 q 381 144 298 144 q 648 95 566 144 q 730 -53 730 46 m 248 458 q 369 316 248 316 q 454 354 422 316 q 487 458 487 392 q 454 563 487 526 q 368 600 420 600 q 280 562 312 600 q 248 458 248 525 z "},"h":{"ha":860,"x_min":99,"x_max":774,"o":"m 324 1042 l 324 646 l 327 646 q 536 736 426 736 q 719 663 663 736 q 774 403 774 590 l 774 0 l 556 0 l 556 374 q 534 522 556 486 q 453 559 513 559 q 365 517 406 559 q 324 430 324 476 l 324 0 l 99 0 l 99 1042 l 324 1042 z "},"i":{"ha":488,"x_min":126,"x_max":362,"o":"m 126 0 l 126 722 l 362 722 l 362 0 l 126 0 m 126 861 l 126 1042 l 362 1042 l 362 861 l 126 861 z "},"j":{"ha":559,"x_min":-26,"x_max":431,"o":"m -26 -305 l -26 -130 q 157 -104 119 -130 q 195 14 195 -79 l 195 722 l 431 722 l 431 14 q 394 -180 431 -114 q 260 -275 357 -245 q -26 -305 163 -305 m 195 861 l 195 1042 l 431 1042 l 431 861 l 195 861 z "},"k":{"ha":857,"x_min":99,"x_max":807,"o":"m 323 1042 l 323 449 l 326 449 l 551 722 l 807 722 l 510 374 l 807 0 l 551 0 l 326 292 l 323 292 l 323 0 l 99 0 l 99 1042 l 323 1042 z "},"l":{"ha":488,"x_min":126,"x_max":362,"o":"m 126 0 l 126 1042 l 362 1042 l 362 0 l 126 0 z "},"m":{"ha":1181,"x_min":92,"x_max":1097,"o":"m 92 722 l 300 722 l 305 629 l 308 629 q 498 736 391 736 q 600 713 562 736 q 670 629 637 689 l 673 629 q 873 736 769 736 q 1044 673 991 736 q 1097 458 1097 610 l 1097 0 l 878 0 l 878 445 q 861 544 878 519 q 799 568 845 568 q 736 542 766 568 q 707 490 707 515 l 707 0 l 487 0 l 487 445 q 471 544 487 519 q 410 568 456 568 q 347 542 378 568 q 316 490 316 515 l 316 0 l 92 0 l 92 722 z "},"n":{"ha":852,"x_min":92,"x_max":766,"o":"m 92 722 l 305 722 l 308 631 l 311 631 q 529 736 401 736 q 711 665 655 736 q 766 420 766 593 l 766 0 l 548 0 l 548 414 q 526 529 548 498 q 446 560 505 560 q 356 520 397 560 q 315 435 315 480 l 315 0 l 92 0 l 92 722 z "},"o":{"ha":814,"x_min":43,"x_max":770,"o":"m 138 637 q 407 736 235 736 q 675 637 579 736 q 770 361 770 538 q 675 85 770 183 q 407 -14 579 -14 q 139 85 235 -14 q 43 361 43 183 q 138 637 43 538 m 304 194 q 407 142 338 142 q 510 194 476 142 q 544 361 544 245 q 510 528 544 476 q 407 579 476 579 q 304 528 338 579 q 270 361 270 476 q 304 194 270 245 z "},"p":{"ha":860,"x_min":92,"x_max":810,"o":"m 92 722 l 305 722 l 308 631 l 311 631 q 526 736 401 736 q 732 639 655 736 q 810 361 810 541 q 730 86 810 186 q 526 -14 650 -14 q 320 72 411 -14 l 316 72 l 316 -305 l 92 -305 l 92 722 m 589 361 q 450 570 589 570 q 353 532 396 570 q 311 448 311 494 l 311 275 q 353 191 311 229 q 450 153 396 153 q 551 205 514 153 q 589 361 589 256 z "},"q":{"ha":860,"x_min":50,"x_max":768,"o":"m 768 722 l 768 -305 l 543 -305 l 543 72 l 540 72 q 334 -14 449 -14 q 130 86 210 -14 q 50 361 50 186 q 127 639 50 541 q 334 736 205 736 q 548 631 458 736 l 552 631 l 555 722 l 768 722 m 271 361 q 309 205 271 256 q 410 153 346 153 q 506 191 464 153 q 548 275 548 229 l 548 448 q 506 532 548 494 q 410 570 464 570 q 271 361 271 570 z "},"r":{"ha":701,"x_min":92,"x_max":637,"o":"m 92 722 l 315 722 l 315 583 l 317 583 q 442 685 365 648 q 610 722 519 722 l 637 722 l 637 553 l 610 553 q 399 486 475 553 q 323 305 323 419 l 323 0 l 92 0 l 92 722 z "},"s":{"ha":739,"x_min":71,"x_max":669,"o":"m 644 541 q 403 579 525 579 q 323 566 346 579 q 300 524 300 552 q 384 454 300 471 q 605 370 541 427 q 669 206 669 313 q 591 44 669 102 q 363 -14 513 -14 q 81 27 214 -14 l 81 197 q 336 149 201 149 q 439 209 439 149 q 420 252 439 236 q 350 278 401 267 q 135 363 199 305 q 71 518 71 422 q 148 679 71 621 q 381 736 225 736 q 644 705 511 736 l 644 541 z "},"t":{"ha":746,"x_min":57,"x_max":654,"o":"m 427 694 l 654 694 l 654 537 l 427 537 l 427 288 q 444 176 427 199 q 515 153 460 153 q 639 172 581 153 l 639 4 q 460 -14 559 -14 q 260 47 317 -14 q 203 264 203 107 l 203 537 l 57 537 l 57 694 l 203 694 l 203 959 l 427 959 l 427 694 z "},"u":{"ha":846,"x_min":84,"x_max":754,"o":"m 84 722 l 302 722 l 302 302 q 325 193 302 222 q 400 163 347 163 q 489 202 449 163 q 529 288 529 241 l 529 722 l 754 722 l 754 0 l 540 0 l 537 92 l 534 92 q 316 -14 445 -14 q 139 54 194 -14 q 84 288 84 122 l 84 722 z "},"v":{"ha":817,"x_min":37,"x_max":780,"o":"m 275 722 l 410 129 l 412 129 l 547 722 l 780 722 l 557 0 l 259 0 l 37 722 l 275 722 z "},"w":{"ha":1150,"x_min":50,"x_max":1100,"o":"m 275 722 l 357 180 l 359 180 l 449 722 l 707 722 l 796 180 l 799 180 l 880 722 l 1100 722 l 936 0 l 670 0 l 576 528 l 574 528 l 480 0 l 214 0 l 50 722 l 275 722 z "},"x":{"ha":827,"x_min":57,"x_max":770,"o":"m 305 722 l 415 480 l 418 480 l 528 722 l 764 722 l 557 368 l 770 0 l 529 0 l 412 252 l 410 252 l 293 0 l 57 0 l 271 368 l 64 722 l 305 722 z "},"y":{"ha":849,"x_min":43,"x_max":812,"o":"m 88 -320 l 88 -151 q 247 -119 198 -151 q 324 0 296 -88 l 43 722 l 290 722 l 425 213 l 427 213 l 576 722 l 812 722 l 541 -9 q 376 -251 479 -182 q 88 -320 274 -320 z "},"z":{"ha":795,"x_min":92,"x_max":703,"o":"m 92 722 l 703 722 l 703 566 l 372 160 l 372 157 l 703 157 l 703 0 l 92 0 l 92 157 l 422 563 l 422 566 l 92 566 l 92 722 z "},"…":{"ha":1389,"x_min":100,"x_max":1289,"o":"m 1025 368 l 1025 632 l 1289 632 l 1289 368 l 1025 368 m 563 368 l 563 632 l 826 632 l 826 368 l 563 368 m 100 368 l 100 632 l 363 632 l 363 368 l 100 368 z "},"　":{"ha":1389,"x_min":0,"x_max":0,"o":""},"、":{"ha":1389,"x_min":88,"x_max":505,"o":"m 88 195 l 243 323 q 505 8 399 140 l 343 -109 q 88 195 256 5 z "},"。":{"ha":1389,"x_min":71,"x_max":533,"o":"m 138 -57 q 71 107 71 11 q 138 271 71 203 q 302 339 206 339 q 465 271 397 339 q 533 107 533 203 q 465 -56 533 11 q 302 -123 397 -123 q 138 -57 206 -123 m 240 170 q 214 106 214 142 q 240 45 214 71 q 302 19 266 19 q 364 45 338 19 q 391 106 391 71 q 364 169 391 142 q 302 195 338 195 q 240 170 266 195 z "},"ぁ":{"ha":928,"x_min":75,"x_max":852,"o":"m 83 625 l 83 781 l 289 781 q 291 854 290 826 q 292 882 292 882 l 452 882 q 448 854 452 882 q 441 781 444 826 l 845 781 l 845 625 l 427 625 q 425 600 427 624 q 422 559 423 576 q 431 559 427 559 q 441 560 435 559 q 633 542 541 568 q 787 446 726 515 q 852 260 849 377 q 826 107 852 171 q 766 2 800 43 q 706 -59 732 -39 q 680 -79 680 -79 l 461 -79 q 499 -54 464 -79 q 580 17 534 -28 q 660 125 625 62 q 696 262 694 187 q 682 327 696 298 q 643 374 667 355 q 582 231 618 305 q 498 90 545 156 q 396 -16 452 24 q 278 -56 340 -56 q 182 -30 229 -56 q 105 55 136 -4 q 75 213 75 114 q 136 394 79 316 q 282 515 193 472 q 282 570 282 543 q 282 625 282 598 l 83 625 m 419 397 q 425 323 420 361 q 435 243 429 285 q 473 326 454 281 q 502 414 491 370 q 458 415 481 416 q 419 408 434 414 q 419 404 419 407 q 419 397 419 400 m 289 106 q 302 109 296 106 q 316 115 309 111 q 298 221 307 160 q 285 350 289 282 q 236 281 254 317 q 214 212 218 244 q 227 134 209 160 q 289 106 245 107 z "},"あ":{"ha":1118,"x_min":98,"x_max":1013,"o":"m 107 757 l 107 940 l 350 940 q 353 1025 351 993 q 354 1059 354 1058 l 541 1059 q 537 1025 541 1058 q 529 940 533 993 l 1005 940 l 1005 757 l 513 757 q 511 728 513 755 q 507 678 509 700 q 518 679 513 678 q 529 681 524 680 q 755 659 647 690 q 937 547 864 628 q 1013 328 1009 465 q 983 147 1013 222 q 912 24 952 72 q 841 -47 872 -24 q 810 -71 810 -71 l 553 -71 q 597 -41 556 -71 q 692 41 639 -12 q 787 168 746 95 q 829 330 827 241 q 812 406 829 373 q 766 461 796 439 q 695 292 738 380 q 597 127 652 205 q 476 3 541 50 q 338 -45 411 -45 q 225 -14 281 -45 q 134 86 170 16 q 99 271 98 156 q 170 485 103 393 q 342 628 237 576 q 342 692 342 659 q 343 757 342 724 l 107 757 m 503 490 q 510 401 505 446 q 524 307 515 357 q 567 404 545 351 q 601 507 589 457 q 549 510 576 511 q 503 502 521 509 q 503 496 503 500 q 503 490 503 492 m 350 146 q 366 149 358 146 q 382 157 374 152 q 361 281 372 209 q 346 433 350 354 q 288 351 309 395 q 263 270 267 308 q 278 179 256 210 q 350 146 300 148 z "},"ぃ":{"ha":952,"x_min":107,"x_max":849,"o":"m 115 840 l 289 840 q 286 788 289 837 q 281 663 283 739 q 277 504 279 587 q 274 350 275 420 q 283 202 274 259 q 320 142 292 145 q 394 168 353 144 q 466 214 435 191 q 499 239 496 237 l 499 47 q 474 27 498 47 q 408 -14 450 7 q 305 -42 365 -35 q 156 38 205 -50 q 107 307 107 126 q 108 471 107 381 q 111 646 109 562 q 114 783 113 730 q 115 840 115 837 m 581 840 l 758 840 q 783 747 760 840 q 827 463 806 654 q 845 -22 849 273 l 675 -22 q 676 40 675 -19 q 674 196 677 99 q 661 408 671 293 q 631 636 651 524 q 581 840 612 749 z "},"い":{"ha":1116,"x_min":118,"x_max":990,"o":"m 127 1010 l 331 1010 q 328 950 331 1008 q 323 803 326 892 q 318 615 320 713 q 315 434 316 517 q 325 260 315 327 q 369 190 335 194 q 455 219 407 191 q 540 275 503 247 q 579 304 576 302 l 579 79 q 550 55 578 79 q 471 6 522 31 q 351 -27 420 -19 q 176 67 233 -37 q 118 384 118 171 q 119 577 118 471 q 121 782 119 684 q 125 944 123 880 q 127 1010 127 1008 m 674 1010 l 884 1010 q 913 901 886 1010 q 965 568 940 792 q 986 -3 990 343 l 787 -3 q 787 70 787 0 q 785 254 788 140 q 769 503 781 368 q 734 771 757 639 q 674 1010 712 903 z "},"ぅ":{"ha":867,"x_min":66,"x_max":776,"o":"m 156 840 q 190 842 156 840 q 281 844 224 844 q 411 842 339 844 q 548 834 486 840 q 648 823 610 829 q 688 815 686 817 l 688 652 q 648 661 686 652 q 548 675 610 669 q 411 682 486 681 q 227 682 297 682 q 156 680 156 681 l 156 840 m 66 513 q 121 533 69 514 q 254 571 172 552 q 429 590 336 590 q 602 564 522 590 q 728 472 682 537 q 776 321 774 407 q 712 116 773 206 q 513 -22 651 26 q 190 -71 376 -71 l 190 102 q 448 135 355 106 q 571 213 540 164 q 600 326 602 262 q 566 400 600 373 q 429 429 532 427 q 311 413 373 427 q 193 379 248 399 q 66 330 138 359 l 66 513 z "},"う":{"ha":1000,"x_min":75,"x_max":909,"o":"m 179 1012 q 219 1014 179 1012 q 327 1017 259 1016 q 480 1015 395 1017 q 641 1005 567 1012 q 760 991 715 998 q 806 983 804 985 l 806 792 q 760 802 804 792 q 641 818 715 811 q 480 827 567 825 q 263 826 346 827 q 179 823 180 825 l 179 1012 m 75 627 q 138 650 77 628 q 296 695 199 673 q 500 719 392 718 q 705 687 610 719 q 853 579 799 655 q 909 403 907 503 q 834 161 906 267 q 600 -2 762 54 q 220 -58 438 -58 l 220 144 q 523 183 415 149 q 668 275 631 217 q 701 407 705 332 q 661 494 701 463 q 500 528 621 526 q 362 509 435 526 q 224 469 289 492 q 75 411 159 446 l 75 627 z "},"ぇ":{"ha":867,"x_min":69,"x_max":804,"o":"m 172 846 q 203 848 172 846 q 288 851 235 850 q 410 849 342 852 q 534 840 476 846 q 627 829 591 834 q 663 823 662 823 l 663 663 q 627 672 662 665 q 534 686 591 680 q 408 693 476 693 q 239 693 304 694 q 172 692 174 692 l 172 846 m 80 616 l 663 616 l 663 472 l 537 350 q 587 306 579 336 q 593 245 594 275 q 593 193 593 221 q 593 149 593 165 q 593 146 593 133 q 596 121 593 126 q 617 115 600 115 q 694 121 647 113 q 772 138 741 129 q 804 146 803 146 l 804 -30 q 591 -61 686 -62 q 469 -25 507 -61 q 431 100 430 11 q 431 148 431 122 q 431 193 431 174 q 431 213 431 212 q 431 222 431 214 q 427 236 430 231 q 415 236 423 241 l 69 -90 l 69 155 l 410 456 l 80 456 l 80 616 z "},"え":{"ha":1044,"x_min":102,"x_max":967,"o":"m 224 1021 q 260 1023 224 1021 q 360 1026 297 1025 q 502 1024 423 1027 q 648 1014 581 1021 q 758 1000 716 1006 q 802 993 799 993 l 802 806 q 758 816 799 807 q 648 832 716 825 q 500 841 581 840 q 302 840 378 842 q 224 838 225 838 l 224 1021 m 115 749 l 802 749 l 802 581 l 652 437 q 710 385 701 420 q 718 313 719 349 q 718 252 718 285 q 718 201 718 220 q 718 198 718 182 q 722 167 718 174 q 747 160 726 160 q 836 167 781 157 q 928 187 891 176 q 967 198 966 198 l 967 -9 q 716 -47 829 -49 q 572 -4 617 -46 q 528 142 526 38 q 528 199 528 168 q 528 252 528 229 q 528 275 528 274 q 527 286 528 277 q 522 302 526 296 q 509 302 518 309 l 102 -80 l 102 206 l 503 562 l 115 562 l 115 749 z "},"ぉ":{"ha":945,"x_min":87,"x_max":876,"o":"m 117 602 l 117 765 l 326 765 l 326 880 l 486 880 l 486 765 l 608 765 q 547 876 586 808 l 726 876 q 842 616 808 705 q 876 525 876 526 l 707 525 q 673 621 686 583 q 624 724 659 658 l 624 602 l 486 602 l 486 514 q 511 518 500 517 q 622 509 563 519 q 733 467 681 498 q 818 378 785 437 q 852 224 850 319 q 818 71 850 130 q 735 -20 785 12 q 631 -63 685 -52 q 532 -75 578 -75 l 532 102 q 624 114 589 102 q 672 153 659 126 q 685 224 685 180 q 639 321 685 288 q 500 351 593 354 q 493 351 496 351 q 486 350 490 351 l 486 155 q 449 16 483 61 q 376 -42 415 -30 q 305 -53 338 -54 q 208 -24 256 -53 q 127 60 160 5 q 90 190 94 114 q 117 319 87 260 q 201 423 148 378 q 326 491 255 468 l 326 602 l 117 602 m 326 138 l 326 316 q 265 264 286 296 q 243 191 244 233 q 254 149 241 165 q 281 125 266 133 q 309 119 297 118 q 317 120 311 118 q 326 138 324 122 z "},"お":{"ha":1118,"x_min":99,"x_max":1027,"o":"m 134 730 l 134 921 l 380 921 l 380 1057 l 568 1057 l 568 921 l 711 921 q 640 1051 686 972 l 850 1051 q 987 745 948 850 q 1027 639 1027 640 l 827 639 q 788 751 804 707 q 730 873 772 795 l 730 730 l 568 730 l 568 625 q 598 631 586 629 q 728 619 659 632 q 859 570 798 606 q 958 465 920 534 q 998 285 997 396 q 959 104 997 174 q 862 -2 921 35 q 739 -53 803 -39 q 623 -66 675 -66 l 623 141 q 730 155 689 141 q 787 201 772 170 q 803 285 803 233 q 749 399 803 359 q 585 434 694 438 q 576 434 581 434 q 568 433 572 434 l 568 203 q 524 39 564 92 q 439 -28 484 -14 q 355 -41 393 -43 q 241 -7 298 -41 q 145 91 184 27 q 102 244 106 155 q 135 397 99 327 q 234 519 171 467 q 380 600 297 571 l 380 730 l 134 730 m 380 184 l 380 393 q 308 332 332 369 q 282 247 283 296 q 295 197 281 216 q 328 169 309 178 q 361 161 346 160 q 370 163 362 160 q 380 184 378 165 z "},"か":{"ha":1112,"x_min":80,"x_max":1073,"o":"m 103 818 q 262 831 193 826 q 263 1047 263 928 l 471 1047 q 468 841 472 929 q 498 841 481 841 q 538 841 515 841 q 571 841 560 841 q 728 774 673 841 q 793 566 783 708 q 801 354 803 463 q 779 153 799 245 q 710 3 758 60 q 578 -57 662 -54 q 463 -47 506 -56 q 420 -37 420 -38 l 420 180 q 545 156 502 155 q 593 223 581 160 q 606 376 606 286 q 601 552 606 465 q 582 618 601 604 q 514 635 563 632 q 486 633 498 635 q 456 632 475 632 q 399 282 438 445 q 298 -46 359 119 l 80 -46 q 195 275 157 126 q 252 618 233 425 q 146 608 186 613 q 103 604 106 604 l 103 818 m 704 1006 l 907 1006 q 1073 458 1023 762 l 873 458 q 704 1006 836 746 z "},"が":{"ha":1114,"x_min":80,"x_max":1073,"o":"m 103 818 q 262 831 193 826 q 263 1047 263 928 l 471 1047 q 468 841 472 929 q 498 841 481 841 q 538 841 515 841 q 571 841 560 841 q 728 774 673 841 q 793 566 783 708 q 801 354 803 463 q 779 153 799 245 q 710 3 758 60 q 578 -57 662 -54 q 463 -47 506 -56 q 420 -37 420 -38 l 420 180 q 545 156 502 155 q 593 223 581 160 q 606 376 606 286 q 601 552 606 465 q 582 618 601 604 q 514 635 563 632 q 486 633 498 635 q 456 632 475 632 q 399 282 438 445 q 298 -46 359 119 l 80 -46 q 195 275 157 126 q 252 618 233 425 q 146 608 186 613 q 103 604 106 604 l 103 818 m 769 876 l 972 876 q 1073 458 1034 724 l 873 458 q 769 876 846 708 m 754 922 l 754 1118 l 848 1118 l 848 922 l 754 922 m 901 922 l 901 1118 l 994 1118 l 994 922 l 901 922 z "},"き":{"ha":1074,"x_min":87,"x_max":987,"o":"m 115 939 q 257 936 198 936 q 391 936 316 936 q 370 1024 378 993 q 362 1057 362 1055 l 578 1057 q 589 1002 582 1029 q 602 947 595 975 q 751 958 685 951 q 858 972 817 966 q 901 978 899 978 l 901 785 q 648 761 760 764 q 663 707 655 734 q 678 654 671 681 q 826 667 754 661 q 943 680 898 674 q 987 686 987 685 l 987 490 q 861 473 917 479 q 732 461 804 467 q 776 321 760 373 q 793 270 792 270 l 570 270 q 544 357 557 312 q 518 449 530 403 q 372 445 444 446 q 235 444 300 444 q 129 444 170 444 q 87 444 88 444 l 87 637 q 291 640 208 639 q 465 644 374 642 q 451 699 458 673 q 438 751 444 726 q 280 748 350 749 q 163 748 210 747 q 115 749 117 749 l 115 939 m 209 361 l 425 361 q 382 288 396 319 q 369 231 368 258 q 380 189 369 206 q 423 163 391 172 q 537 151 456 153 q 712 157 632 151 q 892 179 792 164 l 892 -46 q 782 -56 865 -47 q 529 -66 699 -65 q 254 5 349 -65 q 159 199 159 76 q 172 283 160 247 q 209 361 184 319 z "},"ぎ":{"ha":1074,"x_min":87,"x_max":1070,"o":"m 115 939 q 257 936 198 936 q 391 936 316 936 q 370 1024 378 993 q 362 1057 362 1055 l 578 1057 q 589 1002 582 1029 q 602 947 595 975 q 751 959 685 951 q 830 968 796 963 l 830 1118 l 924 1118 l 924 922 l 901 922 l 901 785 q 648 761 760 764 q 663 707 655 734 q 678 654 671 681 q 826 667 754 661 q 943 680 898 674 q 987 686 987 685 l 987 490 q 861 473 917 479 q 732 461 804 467 q 776 321 760 373 q 793 270 792 270 l 570 270 q 544 357 557 312 q 518 449 530 403 q 372 445 444 446 q 235 444 300 444 q 129 444 170 444 q 87 444 88 444 l 87 637 q 291 640 208 639 q 465 644 374 642 q 451 699 458 673 q 438 751 444 726 q 280 748 350 749 q 163 748 210 747 q 115 749 117 749 l 115 939 m 209 361 l 425 361 q 382 288 396 319 q 369 231 368 258 q 380 189 369 206 q 423 163 391 172 q 537 151 456 153 q 712 157 632 151 q 892 179 792 164 l 892 -46 q 782 -56 865 -47 q 529 -66 699 -65 q 254 5 349 -65 q 159 199 159 76 q 172 283 160 247 q 209 361 184 319 m 977 922 l 977 1118 l 1070 1118 l 1070 922 l 977 922 z "},"く":{"ha":996,"x_min":109,"x_max":945,"o":"m 606 1036 l 941 1036 q 749 883 831 948 q 583 751 667 818 q 436 632 498 684 q 359 564 374 581 q 346 533 346 552 q 363 494 346 514 q 441 420 380 477 q 587 285 503 362 q 753 132 671 208 q 945 -42 836 57 l 631 -42 q 488 84 549 30 q 363 195 427 138 q 247 299 298 252 q 176 369 195 346 q 111 530 109 442 q 175 680 113 617 q 246 741 197 700 q 357 833 296 783 q 474 930 418 883 q 606 1036 530 977 z "},"ぐ":{"ha":1015,"x_min":109,"x_max":967,"o":"m 606 1036 l 941 1036 q 749 883 831 948 q 583 751 667 818 q 436 632 498 684 q 359 564 374 581 q 346 533 346 552 q 363 494 346 514 q 441 420 380 477 q 587 285 503 362 q 753 132 671 208 q 945 -42 836 57 l 631 -42 q 488 84 549 30 q 363 195 427 138 q 247 299 298 252 q 176 369 195 346 q 111 530 109 442 q 175 680 113 617 q 246 741 197 700 q 357 833 296 783 q 474 930 418 883 q 606 1036 530 977 m 727 602 l 727 798 l 821 798 l 821 602 l 727 602 m 873 602 l 873 798 l 967 798 l 967 602 l 873 602 z "},"け":{"ha":1123,"x_min":136,"x_max":1054,"o":"m 176 1021 l 380 1021 q 350 747 359 864 q 339 506 340 629 q 353 254 340 374 q 389 -26 365 133 l 180 -26 q 148 246 159 127 q 136 500 137 365 q 146 747 137 629 q 176 1021 156 865 m 425 618 l 425 826 l 703 826 l 703 1057 l 906 1057 l 906 826 l 1054 826 l 1054 618 l 906 618 l 906 430 q 869 149 902 262 q 762 -61 837 35 l 537 -61 q 624 80 595 16 q 677 233 652 144 q 703 433 701 323 l 703 618 l 425 618 z "},"げ":{"ha":1206,"x_min":136,"x_max":1200,"o":"m 176 1021 l 380 1021 q 350 747 359 864 q 339 506 340 629 q 353 254 340 374 q 389 -26 365 133 l 180 -26 q 148 246 159 127 q 136 500 137 365 q 146 747 137 629 q 176 1021 156 865 m 425 618 l 425 826 l 703 826 l 703 1057 l 906 1057 l 906 826 l 1054 826 l 1054 618 l 906 618 l 906 430 q 869 149 902 262 q 762 -61 837 35 l 537 -61 q 624 80 595 16 q 677 233 652 144 q 703 433 701 323 l 703 618 l 425 618 m 960 868 l 960 1058 l 1054 1058 l 1054 868 l 960 868 m 1107 868 l 1107 1058 l 1200 1058 l 1200 868 l 1107 868 z "},"こ":{"ha":1002,"x_min":107,"x_max":909,"o":"m 133 1010 l 868 1010 l 868 853 l 655 694 l 400 694 l 517 803 l 133 803 l 133 1010 m 232 487 l 488 487 q 402 412 435 445 q 345 339 369 378 q 321 263 320 300 q 335 216 321 236 q 394 186 349 197 q 536 174 439 175 q 723 180 646 174 q 909 202 800 187 l 909 -19 q 506 -47 700 -46 q 205 26 302 -47 q 109 237 107 99 q 142 372 111 316 q 232 487 172 427 z "},"ご":{"ha":1005,"x_min":107,"x_max":967,"o":"m 133 1010 l 868 1010 l 868 853 l 655 694 l 400 694 l 517 803 l 133 803 l 133 1010 m 232 487 l 488 487 q 402 412 435 445 q 345 339 369 378 q 321 263 320 300 q 335 216 321 236 q 394 186 349 197 q 536 174 439 175 q 723 180 646 174 q 909 202 800 187 l 909 -19 q 506 -47 700 -46 q 205 26 302 -47 q 109 237 107 99 q 142 372 111 316 q 232 487 172 427 m 727 515 l 727 711 l 821 711 l 821 515 l 727 515 m 873 515 l 873 711 l 967 711 l 967 515 l 873 515 z "},"さ":{"ha":1088,"x_min":96,"x_max":998,"o":"m 96 863 q 302 861 218 860 q 476 864 387 861 q 444 1000 456 949 q 431 1053 433 1051 l 646 1053 q 652 1019 646 1050 q 666 948 658 989 q 684 875 674 907 q 831 886 758 878 q 998 907 903 895 l 998 694 q 865 677 924 684 q 734 665 807 670 q 802 422 777 505 q 826 339 826 339 l 604 339 q 570 481 591 396 q 528 654 549 566 q 387 650 464 651 q 244 650 309 650 q 96 650 179 650 l 96 863 m 241 496 l 461 496 q 387 367 414 419 q 361 267 361 315 q 373 214 361 236 q 423 175 385 193 q 552 156 461 157 q 741 165 655 155 q 878 186 826 175 q 932 197 930 197 l 932 -31 q 802 -46 869 -38 q 543 -57 734 -54 q 243 31 347 -53 q 145 240 140 114 q 174 377 151 320 q 241 496 197 434 z "},"ざ":{"ha":1179,"x_min":96,"x_max":1173,"o":"m 96 863 q 302 861 218 860 q 476 864 387 861 q 444 1000 456 949 q 431 1053 433 1051 l 646 1053 q 652 1019 646 1050 q 666 948 658 989 q 684 875 674 907 q 831 887 758 878 q 933 899 878 892 l 933 1042 l 1027 1042 l 1027 846 l 998 846 l 998 694 q 865 677 924 684 q 734 665 807 670 q 802 422 777 505 q 826 339 826 339 l 604 339 q 570 481 591 396 q 528 654 549 566 q 387 650 464 651 q 244 650 309 650 q 96 650 179 650 l 96 863 m 241 496 l 461 496 q 387 367 414 419 q 361 267 361 315 q 373 214 361 236 q 423 175 385 193 q 552 156 461 157 q 741 165 655 155 q 878 186 826 175 q 932 197 930 197 l 932 -31 q 802 -46 869 -38 q 543 -57 734 -54 q 243 31 347 -53 q 145 240 140 114 q 174 377 151 320 q 241 496 197 434 m 1080 846 l 1080 1042 l 1173 1042 l 1173 846 l 1080 846 z "},"し":{"ha":1020,"x_min":134,"x_max":930,"o":"m 338 1062 l 338 305 q 364 187 338 225 q 446 145 391 149 q 597 180 518 145 q 753 262 677 214 q 930 388 830 311 l 930 140 q 779 35 849 76 q 620 -38 708 -7 q 434 -72 532 -69 q 205 21 275 -69 q 134 271 134 111 l 134 271 l 134 1062 l 338 1062 z "},"じ":{"ha":1001,"x_min":134,"x_max":930,"o":"m 338 1062 l 338 305 q 364 187 338 225 q 446 145 391 149 q 597 180 518 145 q 753 262 677 214 q 930 388 830 311 l 930 140 q 779 35 849 76 q 620 -38 708 -7 q 434 -72 532 -69 q 205 21 275 -69 q 134 271 134 111 l 134 271 l 134 1062 l 338 1062 m 515 834 l 515 1058 l 623 1058 l 623 834 l 515 834 m 700 834 l 700 1058 l 807 1058 l 807 834 l 700 834 z "},"す":{"ha":1048,"x_min":66,"x_max":986,"o":"m 66 738 l 66 930 l 590 930 l 590 1070 l 783 1070 l 783 930 l 986 930 l 986 738 l 783 738 l 783 472 q 822 309 818 380 q 803 110 827 201 q 722 -71 779 19 l 514 -71 q 567 31 545 -24 q 600 127 589 87 q 610 171 610 168 q 534 98 571 122 q 439 72 496 75 q 302 109 362 71 q 209 220 243 148 q 176 393 175 293 q 217 549 179 477 q 320 659 255 621 q 480 696 385 696 q 547 683 517 693 q 590 663 576 673 l 590 738 l 66 738 m 605 392 q 604 407 605 392 q 593 449 602 422 q 562 496 586 469 q 480 526 537 522 q 384 486 411 524 q 357 397 357 449 q 392 292 357 326 q 484 266 427 258 q 562 305 536 275 q 596 362 587 335 q 605 392 605 389 z "},"ず":{"ha":1081,"x_min":66,"x_max":1070,"o":"m 66 738 l 66 930 l 590 930 l 590 1070 l 783 1070 l 783 930 l 986 930 l 986 738 l 783 738 l 783 472 q 822 309 818 380 q 803 110 827 201 q 722 -71 779 19 l 514 -71 q 567 31 545 -24 q 600 127 589 87 q 610 171 610 168 q 534 98 571 122 q 439 72 496 75 q 302 109 362 71 q 209 220 243 148 q 176 393 175 293 q 217 549 179 477 q 320 659 255 621 q 480 696 385 696 q 547 683 517 693 q 590 663 576 673 l 590 738 l 66 738 m 605 392 q 604 407 605 392 q 593 449 602 422 q 562 496 586 469 q 480 526 537 522 q 384 486 411 524 q 357 397 357 449 q 392 292 357 326 q 484 266 427 258 q 562 305 536 275 q 596 362 587 335 q 605 392 605 389 m 830 971 l 830 1166 l 924 1166 l 924 971 l 830 971 m 977 971 l 977 1166 l 1070 1166 l 1070 971 l 977 971 z "},"せ":{"ha":1069,"x_min":73,"x_max":997,"o":"m 193 629 l 73 629 l 73 837 l 195 837 q 199 1031 197 944 l 397 1031 q 392 837 395 944 l 682 837 q 677 1031 680 943 l 875 1031 q 879 837 878 947 l 997 837 l 997 629 l 882 629 q 882 606 882 617 q 882 568 882 590 q 882 528 882 545 q 844 344 878 411 q 759 254 811 277 q 606 239 707 232 q 469 266 548 240 l 469 439 q 552 425 519 429 q 605 420 585 420 q 648 425 629 419 q 676 456 666 431 q 688 536 686 481 l 688 602 q 688 629 688 616 l 389 629 q 388 573 388 621 q 387 463 388 525 q 388 346 385 400 q 410 234 391 275 q 469 172 430 193 q 585 148 509 151 q 747 148 671 142 q 917 168 822 153 l 917 -42 q 754 -54 829 -52 q 585 -52 680 -56 q 398 -19 487 -47 q 256 94 309 9 q 195 326 202 179 q 193 451 191 382 q 193 629 194 519 z "},"ぜ":{"ha":1122,"x_min":73,"x_max":1168,"o":"m 193 629 l 73 629 l 73 837 l 195 837 q 199 1031 197 944 l 397 1031 q 392 837 395 944 l 682 837 q 677 1031 680 943 l 875 1031 q 879 837 878 947 l 997 837 l 997 629 l 882 629 q 882 606 882 617 q 882 568 882 590 q 882 528 882 545 q 844 344 878 411 q 759 254 811 277 q 606 239 707 232 q 469 266 548 240 l 469 439 q 552 425 519 429 q 605 420 585 420 q 648 425 629 419 q 676 456 666 431 q 688 536 686 481 l 688 602 q 688 629 688 616 l 389 629 q 388 573 388 621 q 387 463 388 525 q 388 346 385 400 q 410 234 391 275 q 469 172 430 193 q 585 148 509 151 q 747 148 671 142 q 917 168 822 153 l 917 -42 q 754 -54 829 -52 q 585 -52 680 -56 q 398 -19 487 -47 q 256 94 309 9 q 195 326 202 179 q 193 451 191 382 q 193 629 194 519 m 928 879 l 928 1074 l 1021 1074 l 1021 879 l 928 879 m 1074 879 l 1074 1074 l 1168 1074 l 1168 879 l 1074 879 z "},"そ":{"ha":1107,"x_min":94,"x_max":1012,"o":"m 231 1042 l 859 1042 l 859 853 q 764 783 818 822 q 657 705 709 743 q 567 637 605 666 l 1012 674 l 1012 467 l 781 448 q 673 418 728 442 q 578 357 618 395 q 526 270 537 320 q 539 195 518 221 q 597 159 560 170 q 675 145 635 149 q 838 144 777 138 q 901 151 898 149 l 901 -64 q 833 -66 898 -64 q 669 -62 769 -69 q 551 -43 624 -58 q 424 12 479 -28 q 336 115 369 52 q 316 274 302 178 q 349 357 324 320 q 414 425 374 395 l 94 400 l 94 608 l 269 623 q 433 742 377 696 q 515 811 488 788 q 543 834 543 834 l 231 834 l 231 1042 z "},"ぞ":{"ha":1160,"x_min":94,"x_max":1157,"o":"m 917 846 l 917 1042 l 1010 1042 l 1010 846 l 917 846 m 1063 846 l 1063 1042 l 1157 1042 l 1157 846 l 1063 846 m 231 1042 l 859 1042 l 859 853 q 764 783 818 822 q 657 705 709 743 q 567 637 605 666 l 1012 674 l 1012 467 l 781 448 q 673 418 728 442 q 578 357 618 395 q 526 270 537 320 q 539 195 518 221 q 597 159 560 170 q 675 145 635 149 q 838 144 777 138 q 901 151 898 149 l 901 -64 q 833 -66 898 -64 q 669 -62 769 -69 q 551 -43 624 -58 q 424 12 479 -28 q 336 115 369 52 q 316 274 302 178 q 349 357 324 320 q 414 425 374 395 l 94 400 l 94 608 l 269 623 q 433 742 377 696 q 515 811 488 788 q 543 834 543 834 l 231 834 l 231 1042 z "},"た":{"ha":1103,"x_min":85,"x_max":1019,"o":"m 85 709 l 85 902 l 273 902 q 283 1012 279 972 q 286 1053 286 1051 l 473 1053 q 461 902 469 975 l 654 902 l 654 736 q 1000 738 844 741 l 1000 538 q 827 543 921 543 q 571 540 734 544 l 567 709 l 441 709 q 377 308 411 476 q 321 47 343 140 q 298 -45 300 -45 l 92 -45 q 189 353 151 156 q 250 709 228 549 l 85 709 m 496 382 l 685 382 q 627 219 623 282 q 754 155 631 156 q 886 157 830 155 q 981 163 943 160 q 1019 165 1019 165 l 1019 -43 q 861 -52 933 -50 q 694 -49 788 -54 q 538 -9 595 -45 q 458 79 481 27 q 435 189 435 132 q 451 292 437 252 q 496 382 465 332 z "},"だ":{"ha":1108,"x_min":85,"x_max":1019,"o":"m 760 857 l 760 1053 l 853 1053 l 853 857 l 760 857 m 906 857 l 906 1053 l 1000 1053 l 1000 857 l 906 857 m 85 709 l 85 902 l 273 902 q 283 1012 279 972 q 286 1053 286 1051 l 473 1053 q 461 902 469 975 l 654 902 l 654 736 q 1000 738 844 741 l 1000 538 q 827 543 921 543 q 571 540 734 544 l 567 709 l 441 709 q 377 308 411 476 q 321 47 343 140 q 298 -45 300 -45 l 92 -45 q 189 353 151 156 q 250 709 228 549 l 85 709 m 496 382 l 685 382 q 627 219 623 282 q 754 155 631 156 q 886 157 830 155 q 981 163 943 160 q 1019 165 1019 165 l 1019 -43 q 861 -52 933 -50 q 694 -49 788 -54 q 538 -9 595 -45 q 458 79 481 27 q 435 189 435 132 q 451 292 437 252 q 496 382 465 332 z "},"ち":{"ha":1038,"x_min":73,"x_max":963,"o":"m 73 704 l 73 911 l 353 911 q 392 1013 380 977 q 404 1051 404 1050 l 625 1051 q 602 980 613 1015 q 576 911 590 945 l 963 911 l 963 704 l 503 704 q 429 564 486 663 q 501 586 464 576 q 574 600 538 595 q 843 532 741 610 q 949 298 945 453 q 877 75 951 172 q 627 -45 803 -22 q 203 -30 450 -69 l 203 180 q 486 149 376 151 q 650 169 595 148 q 728 224 705 190 q 749 300 750 258 q 706 387 750 355 q 557 410 662 418 q 367 359 457 400 q 159 241 277 319 l 159 448 q 283 704 258 643 l 73 704 z "},"ぢ":{"ha":1039,"x_min":73,"x_max":963,"o":"m 722 949 l 722 1145 l 815 1145 l 815 949 l 722 949 m 868 949 l 868 1145 l 962 1145 l 962 949 l 868 949 m 73 704 l 73 911 l 353 911 q 392 1013 380 977 q 404 1051 404 1050 l 625 1051 q 602 980 613 1015 q 576 911 590 945 l 963 911 l 963 704 l 503 704 q 429 564 486 663 q 501 586 464 576 q 574 600 538 595 q 843 532 741 610 q 949 298 945 453 q 877 75 951 172 q 627 -45 803 -22 q 203 -30 450 -69 l 203 180 q 486 149 376 151 q 650 169 595 148 q 728 224 705 190 q 749 300 750 258 q 706 387 750 355 q 557 410 662 418 q 367 359 457 400 q 159 241 277 319 l 159 448 q 283 704 258 643 l 73 704 z "},"っ":{"ha":952,"x_min":64,"x_max":871,"o":"m 64 724 q 269 788 175 768 q 469 810 363 808 q 667 768 578 808 q 807 650 757 728 q 861 456 857 571 q 709 94 871 214 q 206 -27 548 -26 l 206 148 q 487 182 380 145 q 637 290 594 220 q 678 453 681 359 q 628 575 678 526 q 454 631 578 624 q 325 618 388 633 q 201 582 262 602 q 102 545 140 562 q 64 528 64 529 l 64 724 z "},"つ":{"ha":1142,"x_min":84,"x_max":1035,"o":"m 84 875 q 327 950 216 926 q 562 975 438 974 q 795 927 690 974 q 960 787 901 880 q 1023 559 1019 694 q 844 134 1035 275 q 252 -8 654 -7 l 252 197 q 583 238 457 194 q 760 364 709 282 q 808 556 811 446 q 749 700 808 643 q 544 765 689 757 q 392 750 467 768 q 245 708 317 732 q 129 665 174 684 q 84 644 84 646 l 84 875 z "},"づ":{"ha":1142,"x_min":84,"x_max":1092,"o":"m 852 911 l 852 1107 l 945 1107 l 945 911 l 852 911 m 998 911 l 998 1107 l 1092 1107 l 1092 911 l 998 911 m 84 875 q 327 950 216 926 q 562 975 438 974 q 795 927 690 974 q 960 787 901 880 q 1023 559 1019 694 q 844 134 1035 275 q 252 -8 654 -7 l 252 197 q 583 238 457 194 q 760 364 709 282 q 808 556 811 446 q 749 700 808 643 q 544 765 689 757 q 392 750 467 768 q 245 708 317 732 q 129 665 174 684 q 84 644 84 646 l 84 875 z "},"て":{"ha":1042,"x_min":79,"x_max":968,"o":"m 968 1001 l 968 793 q 736 722 834 780 q 572 589 637 665 q 487 445 506 514 q 491 298 463 353 q 570 218 519 243 q 665 190 621 193 q 769 190 719 187 q 858 197 819 193 q 898 202 897 202 l 898 -15 q 766 -25 823 -24 q 648 -22 709 -26 q 515 5 591 -19 q 378 79 439 28 q 283 213 316 129 q 264 420 250 297 q 317 576 279 507 q 398 694 354 646 q 473 768 442 742 q 507 793 505 793 l 79 793 l 79 1001 l 968 1001 z "},"で":{"ha":1050,"x_min":79,"x_max":968,"o":"m 727 510 l 727 705 l 821 705 l 821 510 l 727 510 m 873 510 l 873 705 l 967 705 l 967 510 l 873 510 m 968 1001 l 968 793 q 736 722 834 780 q 572 589 637 665 q 487 445 506 514 q 491 298 463 353 q 570 218 519 243 q 665 190 621 193 q 769 190 719 187 q 858 197 819 193 q 898 202 897 202 l 898 -15 q 766 -25 823 -24 q 648 -22 709 -26 q 515 5 591 -19 q 378 79 439 28 q 283 213 316 129 q 264 420 250 297 q 317 576 279 507 q 398 694 354 646 q 473 768 442 742 q 507 793 505 793 l 79 793 l 79 1001 l 968 1001 z "},"と":{"ha":1013,"x_min":85,"x_max":917,"o":"m 917 553 q 699 545 791 553 q 519 513 606 537 q 371 443 433 490 q 308 321 309 396 q 354 215 309 250 q 462 169 399 180 q 598 157 525 157 q 755 158 684 153 q 872 168 827 163 q 917 172 917 172 l 917 -45 q 602 -50 742 -58 q 359 -15 472 -45 q 165 96 245 15 q 95 334 85 178 q 132 478 103 419 q 212 577 161 537 q 311 648 262 617 l 248 1042 l 437 1042 l 487 713 q 693 761 595 749 q 917 774 791 773 l 917 553 z "},"ど":{"ha":1016,"x_min":85,"x_max":918,"o":"m 678 846 l 678 1042 l 772 1042 l 772 846 l 678 846 m 825 846 l 825 1042 l 918 1042 l 918 846 l 825 846 m 917 553 q 699 545 791 553 q 519 513 606 537 q 371 443 433 490 q 308 321 309 396 q 354 215 309 250 q 462 169 399 180 q 598 157 525 157 q 755 158 684 153 q 872 168 827 163 q 917 172 917 172 l 917 -45 q 602 -50 742 -58 q 359 -15 472 -45 q 165 96 245 15 q 95 334 85 178 q 132 478 103 419 q 212 577 161 537 q 311 648 262 617 l 248 1042 l 437 1042 l 487 713 q 693 761 595 749 q 917 774 791 773 l 917 553 z "},"な":{"ha":1089,"x_min":65,"x_max":997,"o":"m 72 715 l 72 920 l 243 920 q 258 1020 254 981 q 263 1061 263 1059 l 453 1061 q 430 920 434 958 l 602 920 l 602 715 l 397 715 q 281 228 301 293 q 262 163 262 163 l 65 163 q 206 715 183 583 l 72 715 m 658 925 q 816 932 741 933 q 940 928 891 930 q 990 924 989 925 l 990 715 q 946 718 989 715 q 836 722 903 720 l 836 452 q 945 405 897 430 q 997 377 994 380 l 997 156 q 972 174 997 156 q 909 214 947 191 q 836 251 871 237 l 836 163 q 801 7 836 60 q 718 -63 766 -45 q 618 -81 669 -81 q 490 -61 553 -84 q 383 22 427 -38 q 339 190 339 81 q 425 409 340 330 q 659 479 510 488 l 658 925 m 618 110 q 649 130 639 111 q 659 180 659 149 l 659 296 q 548 278 586 307 q 506 199 510 250 q 535 127 505 149 q 618 110 566 106 z "},"に":{"ha":1040,"x_min":96,"x_max":967,"o":"m 427 956 l 943 956 l 943 749 l 427 749 l 427 956 m 439 475 l 628 475 q 590 389 602 426 q 576 311 578 353 q 586 262 575 285 q 630 224 597 239 q 728 208 663 209 q 905 215 842 208 q 967 224 967 222 l 967 8 q 867 -3 922 0 q 715 -7 812 -5 q 473 71 556 -3 q 387 254 391 145 q 397 372 384 323 q 439 475 411 422 m 136 1016 l 339 1016 q 309 741 319 859 q 298 499 300 623 q 313 248 301 369 q 350 -31 324 127 l 140 -31 q 108 240 118 121 q 96 495 98 359 q 107 741 98 623 q 136 1016 117 860 z "},"ぬ":{"ha":1127,"x_min":91,"x_max":1053,"o":"m 179 993 l 350 993 q 370 793 354 879 q 468 845 416 826 q 576 869 519 864 q 600 1004 593 954 q 608 1057 608 1054 l 795 1057 q 751 852 773 944 q 896 760 842 822 q 976 625 949 699 q 1010 484 1002 551 q 1017 374 1017 416 q 1013 311 1017 342 q 1001 252 1009 281 q 1040 212 1027 228 q 1053 195 1053 195 l 1053 -56 q 932 71 981 27 q 877 3 910 37 q 799 -54 844 -31 q 696 -76 754 -77 q 602 -50 647 -75 q 528 21 557 -26 q 495 134 498 68 q 498 176 495 155 q 402 47 456 100 q 281 -7 349 -7 q 159 46 201 -4 q 104 170 118 96 q 94 316 91 243 q 129 471 95 376 q 232 663 163 567 q 202 823 214 747 q 179 993 190 898 m 410 610 q 444 506 425 548 q 464 463 463 464 q 500 568 484 515 q 532 674 517 621 q 465 652 495 667 q 410 610 434 637 m 288 198 q 323 215 301 197 q 377 285 346 233 q 335 365 357 320 q 294 460 313 410 q 264 398 277 435 q 250 313 251 361 q 262 222 248 248 q 288 198 275 197 m 840 374 q 831 481 842 426 q 789 585 821 537 q 700 659 758 633 q 641 486 674 574 q 567 311 608 397 q 662 363 608 347 q 779 370 716 380 q 809 364 793 368 q 838 354 825 361 q 840 366 840 361 q 840 374 840 370 m 704 99 q 762 126 738 102 q 802 191 785 151 q 779 203 789 198 q 757 209 768 208 q 672 190 696 214 q 650 140 648 165 q 667 111 651 123 q 704 99 682 98 z "},"ね":{"ha":1081,"x_min":80,"x_max":1015,"o":"m 278 -87 l 278 309 q 187 141 235 221 q 111 9 140 61 q 80 -43 81 -42 l 80 304 q 184 460 137 393 q 278 601 231 528 l 278 633 l 80 633 l 80 841 l 278 841 l 278 1061 l 463 1061 l 463 757 q 600 857 529 823 q 720 887 671 890 q 872 832 817 883 q 954 708 928 781 q 988 559 981 635 q 993 431 996 484 q 986 358 991 393 q 974 289 981 323 q 999 259 989 273 q 1015 237 1009 245 l 1015 -26 q 972 29 1001 -8 q 913 110 944 66 q 815 -28 875 27 q 667 -79 755 -83 q 547 -1 594 -73 q 502 179 499 71 q 534 328 506 262 q 618 429 562 393 q 758 434 674 465 q 799 413 785 422 q 812 404 812 404 q 814 417 812 410 q 815 433 815 425 q 794 608 822 538 q 699 681 766 678 q 635 659 675 680 q 549 601 595 637 q 463 517 503 564 l 463 -87 l 278 -87 m 689 103 q 744 135 726 104 q 779 214 762 165 q 730 254 750 244 q 667 250 690 274 q 642 179 643 225 q 656 127 642 148 q 689 103 670 106 z "},"の":{"ha":1126,"x_min":87,"x_max":1036,"o":"m 351 254 q 404 307 382 252 q 437 446 425 361 q 456 623 450 530 q 461 791 463 715 q 361 713 401 770 q 300 585 321 656 q 277 452 279 514 q 294 303 273 350 q 351 254 316 256 m 834 526 q 787 707 830 633 q 654 795 743 781 q 637 529 650 663 q 586 282 624 395 q 491 103 548 170 q 347 39 434 37 q 226 81 283 42 q 128 209 168 119 q 87 452 88 298 q 148 725 90 602 q 304 923 206 848 q 525 1010 401 998 q 770 972 658 1020 q 954 808 882 924 q 1034 514 1025 693 q 994 251 1036 361 q 882 79 951 141 q 734 -9 814 18 q 587 -37 654 -37 l 587 167 q 769 261 703 171 q 834 526 836 351 z "},"は":{"ha":1072,"x_min":102,"x_max":998,"o":"m 141 1031 l 328 1031 q 308 859 316 936 q 294 694 300 783 q 288 521 288 605 q 295 324 288 422 q 313 145 302 227 q 338 -37 323 64 l 145 -37 q 112 254 122 129 q 102 514 102 378 q 111 758 102 640 q 141 1031 121 875 m 372 867 l 656 867 l 656 1044 l 841 1043 l 841 867 l 990 867 l 990 658 l 841 658 l 841 439 q 998 370 899 419 l 998 161 q 913 216 948 195 q 841 251 879 237 l 841 167 q 808 22 841 71 q 723 -45 776 -27 q 620 -62 670 -62 q 495 -43 555 -65 q 397 36 435 -20 q 358 193 358 92 q 435 399 359 326 q 656 464 510 473 l 656 658 l 372 658 l 372 867 m 620 123 q 648 140 640 125 q 656 184 656 156 l 656 289 q 559 274 593 300 q 521 202 525 248 q 545 138 518 157 q 620 123 572 119 z "},"ば":{"ha":1133,"x_min":102,"x_max":1130,"o":"m 890 911 l 890 1107 l 983 1107 l 983 911 l 890 911 m 1036 911 l 1036 1107 l 1130 1107 l 1130 911 l 1036 911 m 141 1031 l 328 1031 q 308 859 316 936 q 294 694 300 783 q 288 521 288 605 q 295 324 288 422 q 313 145 302 227 q 338 -37 323 64 l 145 -37 q 112 254 122 129 q 102 514 102 378 q 111 758 102 640 q 141 1031 121 875 m 372 867 l 656 867 l 656 1044 l 841 1043 l 841 867 l 990 867 l 990 658 l 841 658 l 841 439 q 998 370 899 419 l 998 161 q 913 216 948 195 q 841 251 879 237 l 841 167 q 808 22 841 71 q 723 -45 776 -27 q 620 -62 670 -62 q 495 -43 555 -65 q 397 36 435 -20 q 358 193 358 92 q 435 399 359 326 q 656 464 510 473 l 656 658 l 372 658 l 372 867 m 620 123 q 648 140 640 125 q 656 184 656 156 l 656 289 q 559 274 593 300 q 521 202 525 248 q 545 138 518 157 q 620 123 572 119 z "},"ぱ":{"ha":1114,"x_min":102,"x_max":1166,"o":"m 1084 1038 q 1064 1086 1084 1067 q 1016 1105 1044 1105 q 968 1086 987 1105 q 949 1038 949 1067 q 968 990 949 1009 q 1016 971 987 971 q 1064 990 1044 971 q 1084 1038 1084 1009 m 910 1145 q 1016 1188 954 1188 q 1122 1144 1078 1188 q 1166 1038 1166 1100 q 1122 932 1166 975 q 1016 888 1078 888 q 910 932 954 888 q 867 1038 867 975 q 910 1145 867 1100 m 141 1031 l 328 1031 q 308 859 316 936 q 294 694 300 783 q 288 521 288 605 q 295 324 288 422 q 313 145 302 227 q 338 -37 323 64 l 145 -37 q 112 254 122 129 q 102 514 102 378 q 111 758 102 640 q 141 1031 121 875 m 372 867 l 656 867 l 656 1044 l 841 1043 l 841 867 l 990 867 l 990 658 l 841 658 l 841 439 q 998 370 899 419 l 998 161 q 913 216 948 195 q 841 251 879 237 l 841 167 q 808 22 841 71 q 723 -45 776 -27 q 620 -62 670 -62 q 495 -43 555 -65 q 397 36 435 -20 q 358 193 358 92 q 435 399 359 326 q 656 464 510 473 l 656 658 l 372 658 l 372 867 m 620 123 q 648 140 640 125 q 656 184 656 156 l 656 289 q 559 274 593 300 q 521 202 525 248 q 545 138 518 157 q 620 123 572 119 z "},"ひ":{"ha":1048,"x_min":66,"x_max":982,"o":"m 66 991 l 495 991 l 495 781 l 492 781 q 392 672 444 735 q 310 538 340 609 q 275 397 279 467 q 311 224 271 282 q 437 161 350 165 q 586 218 530 153 q 643 453 642 283 q 619 704 642 582 q 581 906 597 826 q 563 990 564 986 l 726 990 q 757 935 727 986 q 830 822 787 884 q 895 741 860 779 q 982 654 929 703 l 982 377 q 880 479 920 434 q 810 576 840 525 q 825 498 819 537 q 831 423 831 458 q 815 285 831 365 q 756 127 799 205 q 635 1 713 50 q 433 -47 556 -49 q 262 2 330 -42 q 150 113 194 46 q 94 256 106 180 q 84 397 81 331 q 136 606 91 506 q 256 781 182 707 l 66 781 l 66 991 z "},"び":{"ha":1062,"x_min":66,"x_max":1043,"o":"m 803 868 l 803 1063 l 897 1063 l 897 868 l 803 868 m 949 868 l 949 1063 l 1043 1063 l 1043 868 l 949 868 m 66 991 l 495 991 l 495 781 l 492 781 q 392 672 444 735 q 310 538 340 609 q 275 397 279 467 q 311 224 271 282 q 437 161 350 165 q 586 218 530 153 q 643 453 642 283 q 619 704 642 582 q 581 906 597 826 q 563 990 564 986 l 726 990 q 757 935 727 986 q 830 822 787 884 q 895 741 860 779 q 982 654 929 703 l 982 377 q 880 479 920 434 q 810 576 840 525 q 825 498 819 537 q 831 423 831 458 q 815 285 831 365 q 756 127 799 205 q 635 1 713 50 q 433 -47 556 -49 q 262 2 330 -42 q 150 113 194 46 q 94 256 106 180 q 84 397 81 331 q 136 606 91 506 q 256 781 182 707 l 66 781 l 66 991 z "},"ぴ":{"ha":1067,"x_min":66,"x_max":1112,"o":"m 66 991 l 495 991 l 495 781 l 492 781 q 392 672 444 735 q 310 538 340 609 q 275 397 279 467 q 311 224 271 282 q 437 161 350 165 q 586 218 530 153 q 643 453 642 283 q 619 704 642 582 q 581 906 597 826 q 563 990 564 986 l 726 990 q 757 935 727 986 q 830 822 787 884 q 895 741 860 779 q 982 654 929 703 l 982 377 q 880 479 920 434 q 810 576 840 525 q 825 498 819 537 q 831 423 831 458 q 815 285 831 365 q 756 127 799 205 q 635 1 713 50 q 433 -47 556 -49 q 262 2 330 -42 q 150 113 194 46 q 94 256 106 180 q 84 397 81 331 q 136 606 91 506 q 256 781 182 707 l 66 781 l 66 991 m 1029 989 q 1010 1038 1029 1019 q 962 1057 990 1057 q 914 1038 933 1057 q 895 989 895 1019 q 914 941 895 960 q 962 922 933 922 q 1010 941 990 922 q 1029 989 1029 960 m 856 1096 q 962 1139 899 1139 q 1068 1095 1024 1139 q 1112 989 1112 1051 q 1068 883 1112 926 q 962 840 1024 840 q 856 883 899 840 q 812 989 812 926 q 856 1096 812 1051 z "},"ふ":{"ha":1053,"x_min":71,"x_max":977,"o":"m 203 1023 q 352 1027 285 1027 q 506 1025 419 1028 q 666 1015 593 1023 q 785 1001 739 1008 q 830 994 830 994 l 830 777 q 667 807 741 798 q 505 818 593 817 q 288 815 370 819 q 203 810 206 811 l 203 1023 m 71 52 q 77 202 73 136 q 90 345 81 269 q 113 488 99 420 q 136 598 126 555 q 146 643 146 642 l 328 643 q 290 473 304 545 q 269 330 275 401 q 258 191 262 254 q 254 90 255 127 q 252 52 252 52 l 71 52 m 977 52 l 793 52 q 789 191 792 127 q 779 330 785 254 q 758 473 772 401 q 718 643 743 545 l 901 643 q 935 488 921 555 q 956 345 948 420 q 968 202 964 269 q 975 94 972 136 q 977 52 977 53 m 369 705 l 589 705 q 619 633 591 703 q 675 463 647 564 q 716 264 703 361 q 701 61 734 132 q 611 -35 667 -9 q 472 -50 555 -61 q 320 4 403 -42 l 320 222 q 395 180 361 194 q 461 165 429 167 q 506 181 490 164 q 517 264 522 198 q 490 391 510 317 q 444 536 469 464 q 369 705 418 608 z "},"ぶ":{"ha":1061,"x_min":71,"x_max":1027,"o":"m 203 1023 q 352 1027 285 1027 q 506 1025 419 1028 q 666 1015 593 1023 q 785 1001 739 1008 l 787 1001 l 787 1074 l 880 1074 l 880 879 l 830 879 l 830 777 q 667 807 741 798 q 505 818 593 817 q 288 815 370 819 q 203 810 206 811 l 203 1023 m 71 52 q 77 202 73 136 q 90 345 81 269 q 113 488 99 420 q 136 598 126 555 q 146 643 146 642 l 328 643 q 290 473 304 545 q 269 330 275 401 q 258 191 262 254 q 254 90 255 127 q 252 52 252 52 l 71 52 m 977 52 l 793 52 q 789 191 792 127 q 779 330 785 254 q 758 473 772 401 q 718 643 743 545 l 901 643 q 935 488 921 555 q 956 345 948 420 q 968 202 964 269 q 975 94 972 136 q 977 52 977 53 m 369 705 l 589 705 q 619 633 591 703 q 675 463 647 564 q 716 264 703 361 q 701 61 734 132 q 611 -35 667 -9 q 472 -50 555 -61 q 320 4 403 -42 l 320 222 q 395 180 361 194 q 461 165 429 167 q 506 181 490 164 q 517 264 522 198 q 490 391 510 317 q 444 536 469 464 q 369 705 418 608 m 933 879 l 933 1074 l 1027 1074 l 1027 879 l 933 879 z "},"ぷ":{"ha":1065,"x_min":71,"x_max":1053,"o":"m 203 1023 q 352 1027 285 1027 q 506 1025 419 1028 q 666 1016 593 1023 q 754 1005 716 1010 q 796 1096 758 1057 q 902 1139 840 1139 q 1008 1095 964 1139 q 1053 989 1053 1051 q 1008 883 1053 926 q 902 840 964 840 q 830 857 863 840 l 830 777 q 667 807 741 798 q 505 818 593 817 q 288 815 370 819 q 203 810 206 811 l 203 1023 m 71 52 q 77 202 73 136 q 90 345 81 269 q 113 488 99 420 q 136 598 126 555 q 146 643 146 642 l 328 643 q 290 473 304 545 q 269 330 275 401 q 258 191 262 254 q 254 90 255 127 q 252 52 252 52 l 71 52 m 977 52 l 793 52 q 789 191 792 127 q 779 330 785 254 q 758 473 772 401 q 718 643 743 545 l 901 643 q 935 488 921 555 q 956 345 948 420 q 968 202 964 269 q 975 94 972 136 q 977 52 977 53 m 369 705 l 589 705 q 619 633 591 703 q 675 463 647 564 q 716 264 703 361 q 701 61 734 132 q 611 -35 667 -9 q 472 -50 555 -61 q 320 4 403 -42 l 320 222 q 395 180 361 194 q 461 165 429 167 q 506 181 490 164 q 517 264 522 198 q 490 391 510 317 q 444 536 469 464 q 369 705 418 608 m 970 989 q 950 1038 970 1019 q 902 1057 930 1057 q 854 1038 873 1057 q 836 989 836 1019 q 854 941 836 960 q 902 922 873 922 q 950 941 930 922 q 970 989 970 960 z "},"へ":{"ha":1046,"x_min":71,"x_max":970,"o":"m 71 567 q 163 724 125 659 q 237 850 201 789 q 294 944 274 911 q 348 1000 320 983 q 396 1021 376 1017 q 416 1023 416 1024 q 484 1006 457 1020 q 532 960 510 993 q 596 863 548 936 q 707 694 644 789 q 829 509 770 600 q 970 297 888 419 l 970 -95 q 445 713 456 694 q 424 739 431 735 q 416 741 416 742 q 411 738 416 742 q 392 713 406 734 q 344 640 380 697 q 262 505 308 582 q 144 305 217 429 q 71 180 71 182 l 71 567 z "},"べ":{"ha":1047,"x_min":71,"x_max":978,"o":"m 738 814 l 738 1009 l 831 1009 l 831 814 l 738 814 m 884 814 l 884 1009 l 978 1009 l 978 814 l 884 814 m 71 567 q 163 724 125 659 q 237 850 201 789 q 294 944 274 911 q 348 1000 320 983 q 396 1021 376 1017 q 416 1023 416 1024 q 484 1006 457 1020 q 532 960 510 993 q 596 863 548 936 q 707 694 644 789 q 829 509 770 600 q 970 297 888 419 l 970 -95 q 445 713 456 694 q 424 739 431 735 q 416 741 416 742 q 411 738 416 742 q 392 713 406 734 q 344 640 380 697 q 262 505 308 582 q 144 305 217 429 q 71 180 71 182 l 71 567 z "},"ぺ":{"ha":1047,"x_min":71,"x_max":1015,"o":"m 71 567 q 163 724 125 659 q 237 850 201 789 q 294 944 274 911 q 348 1000 320 983 q 396 1021 376 1017 q 416 1023 416 1024 q 484 1006 457 1020 q 532 960 510 993 q 596 863 548 936 q 707 694 644 789 q 829 509 770 600 q 970 297 888 419 l 970 -95 q 445 713 456 694 q 424 739 431 735 q 416 741 416 742 q 411 738 416 742 q 392 713 406 734 q 344 640 380 697 q 262 505 308 582 q 144 305 217 429 q 71 180 71 182 l 71 567 m 932 875 q 912 924 932 905 q 864 943 892 943 q 817 924 836 943 q 798 875 798 905 q 817 827 798 846 q 864 808 836 808 q 912 827 892 808 q 932 875 932 846 m 758 982 q 864 1025 802 1025 q 970 981 926 1025 q 1015 875 1015 937 q 970 769 1015 812 q 864 726 926 726 q 758 769 802 726 q 715 875 715 812 q 758 982 715 937 z "},"ほ":{"ha":1053,"x_min":85,"x_max":982,"o":"m 125 1029 l 312 1029 q 292 859 300 935 q 277 693 283 783 q 271 519 271 604 q 279 323 271 420 q 296 144 286 225 q 314 13 307 62 q 321 -37 321 -37 l 129 -37 q 96 253 106 127 q 85 514 85 378 q 95 756 85 639 q 125 1029 104 873 m 640 441 l 640 548 l 381 548 l 381 732 l 640 732 l 640 848 l 381 848 l 381 1031 l 974 1031 l 974 848 l 825 848 l 825 732 l 974 732 l 974 548 l 825 548 l 825 416 q 982 350 883 396 l 982 149 q 897 204 932 184 q 825 236 863 224 l 825 157 q 789 18 825 65 q 704 -45 754 -28 q 604 -62 654 -62 q 479 -44 538 -65 q 380 31 419 -23 q 342 182 342 85 q 418 378 343 307 q 640 441 494 450 m 604 117 q 632 132 624 118 q 640 172 640 146 l 640 271 q 540 257 571 281 q 505 190 509 233 q 526 131 502 148 q 604 117 551 114 z "},"ぼ":{"ha":1122,"x_min":85,"x_max":1168,"o":"m 1074 906 l 1074 1101 l 1168 1101 l 1168 906 l 1074 906 m 125 1029 l 312 1029 q 292 859 300 935 q 277 693 283 783 q 271 519 271 604 q 279 323 271 420 q 296 144 286 225 q 314 13 307 62 q 321 -37 321 -37 l 129 -37 q 96 253 106 127 q 85 514 85 378 q 95 756 85 639 q 125 1029 104 873 m 640 441 l 640 548 l 381 548 l 381 732 l 640 732 l 640 848 l 381 848 l 381 1031 l 928 1031 l 928 1101 l 1021 1101 l 1021 906 l 974 906 l 974 848 l 825 848 l 825 732 l 974 732 l 974 548 l 825 548 l 825 416 q 982 350 883 396 l 982 149 q 897 204 932 184 q 825 236 863 224 l 825 157 q 789 18 825 65 q 704 -45 754 -28 q 604 -62 654 -62 q 479 -44 538 -65 q 380 31 419 -23 q 342 182 342 85 q 418 378 343 307 q 640 441 494 450 m 604 117 q 632 132 624 118 q 640 172 640 146 l 640 271 q 540 257 571 281 q 505 190 509 233 q 526 131 502 148 q 604 117 551 114 z "},"ぽ":{"ha":1084,"x_min":85,"x_max":1123,"o":"m 1040 1043 q 1021 1092 1040 1073 q 972 1111 1001 1111 q 925 1092 944 1111 q 906 1043 906 1073 q 925 996 906 1015 q 972 977 944 977 q 1021 996 1001 977 q 1040 1043 1040 1015 m 867 1150 q 972 1194 910 1194 q 1079 1149 1035 1194 q 1123 1043 1123 1105 q 1080 937 1123 981 q 974 894 1035 894 l 974 848 l 825 848 l 825 732 l 974 732 l 974 548 l 825 548 l 825 416 q 982 350 883 396 l 982 149 q 897 204 932 184 q 825 236 863 224 l 825 157 q 789 18 825 65 q 704 -45 754 -28 q 604 -62 654 -62 q 479 -44 538 -65 q 380 31 419 -23 q 342 182 342 85 q 418 378 343 307 q 640 441 494 450 l 640 548 l 381 548 l 381 732 l 640 732 l 640 848 l 381 848 l 381 1031 l 823 1031 q 823 1043 823 1036 q 867 1150 823 1105 m 125 1029 l 312 1029 q 292 859 300 935 q 277 693 283 783 q 271 519 271 604 q 279 323 271 420 q 296 144 286 225 q 314 13 307 62 q 321 -37 321 -37 l 129 -37 q 96 253 106 127 q 85 514 85 378 q 95 756 85 639 q 125 1029 104 873 m 604 117 q 632 132 624 118 q 640 172 640 146 l 640 271 q 540 257 571 281 q 505 190 509 233 q 526 131 502 148 q 604 117 551 114 z "},"ま":{"ha":994,"x_min":64,"x_max":922,"o":"m 88 678 l 439 678 l 439 754 l 64 754 l 64 943 l 439 943 l 439 1059 l 636 1059 l 636 943 l 922 943 l 922 754 l 636 754 l 636 678 l 899 678 l 899 494 l 636 494 l 636 395 q 758 336 696 373 q 860 271 821 300 q 901 239 899 241 l 901 5 q 860 41 899 7 q 761 123 821 76 q 636 206 701 170 l 636 164 q 591 7 635 58 q 488 -58 547 -43 q 365 -72 429 -73 q 216 -45 285 -72 q 108 35 146 -18 q 66 165 69 88 q 117 315 66 259 q 256 395 167 370 q 439 422 345 420 l 439 494 l 88 494 l 88 678 m 365 106 q 415 121 393 106 q 439 167 437 137 l 439 252 q 302 237 354 263 q 250 180 251 210 q 272 127 250 149 q 365 106 294 106 z "},"み":{"ha":1066,"x_min":53,"x_max":1006,"o":"m 122 796 l 122 1013 l 632 1013 q 631 958 632 1012 q 625 813 631 903 q 605 613 618 723 q 723 567 663 594 q 733 686 730 625 q 736 811 736 747 l 916 811 q 916 767 916 810 q 911 651 916 724 q 895 487 906 578 q 976 444 947 461 q 1006 427 1005 427 l 1006 183 q 966 208 1005 184 q 861 267 926 232 q 818 92 844 178 q 754 -68 792 7 l 537 -68 q 562 -16 537 -66 q 622 130 587 35 q 688 357 656 224 q 627 385 656 372 q 568 408 597 397 q 568 407 568 408 q 567 406 567 406 q 502 221 545 316 q 398 61 458 126 q 263 -9 338 -4 q 105 87 157 -8 q 71 340 53 182 q 140 497 84 430 q 271 603 197 564 q 429 646 345 642 q 437 728 434 689 q 441 796 439 768 l 122 796 m 270 209 q 322 245 300 210 q 359 327 345 281 q 382 409 374 373 q 391 446 391 445 q 312 423 346 446 q 261 369 278 400 q 237 313 244 338 q 242 235 228 260 q 270 209 256 209 z "},"む":{"ha":1032,"x_min":66,"x_max":990,"o":"m 98 713 l 98 916 l 330 916 l 330 1051 l 507 1051 l 507 916 l 669 916 q 622 1006 643 967 q 600 1046 601 1044 l 814 1046 q 880 904 815 1043 q 968 700 945 765 q 990 632 990 635 l 789 632 q 755 724 789 635 q 693 872 722 814 l 693 713 l 507 713 l 507 479 q 522 415 517 448 q 525 347 526 382 q 513 283 521 313 q 494 225 505 252 q 511 153 488 167 q 598 141 534 138 q 718 165 678 140 q 757 259 758 190 q 747 371 757 319 q 728 456 738 423 q 718 491 718 490 l 929 491 q 960 271 955 368 q 941 120 964 197 q 835 -12 917 43 q 600 -72 753 -66 q 407 -31 468 -72 q 331 64 346 9 q 308 57 320 58 q 283 56 296 56 q 172 96 224 57 q 94 203 121 136 q 72 354 66 270 q 113 510 77 445 q 202 610 148 575 q 317 646 256 644 q 323 645 320 646 q 330 644 327 644 l 330 713 l 98 713 m 232 354 q 245 266 229 293 q 289 239 260 239 q 343 269 321 239 q 370 362 365 300 q 358 450 374 420 q 313 480 342 479 q 260 446 282 479 q 232 354 237 412 z "},"め":{"ha":1122,"x_min":73,"x_max":1040,"o":"m 164 1016 l 345 1016 q 347 965 345 1013 q 361 838 350 917 q 461 880 407 865 q 578 894 515 894 q 594 1026 590 975 q 598 1078 598 1077 l 796 1078 q 789 1019 796 1077 q 765 865 781 960 q 946 734 884 825 q 1024 543 1008 643 q 1032 372 1040 442 q 964 159 1019 240 q 843 34 909 77 q 714 -27 777 -9 q 566 -49 651 -45 l 566 164 q 694 186 643 168 q 781 252 745 205 q 827 387 817 300 q 805 568 838 481 q 718 665 772 655 q 659 472 690 570 q 586 288 627 374 q 515 160 557 222 q 416 58 472 98 q 289 15 359 18 q 160 72 208 18 q 93 205 113 126 q 76 358 73 283 q 90 456 77 396 q 132 583 103 515 q 210 715 161 651 q 184 861 194 792 q 169 971 174 929 q 164 1016 164 1013 m 403 635 q 418 580 403 632 q 472 460 434 528 q 509 571 492 514 q 540 684 526 628 q 471 673 510 685 q 403 635 433 661 m 297 228 q 334 235 313 225 q 382 285 354 245 q 330 375 358 324 q 277 487 302 426 q 254 419 262 453 q 244 357 245 385 q 258 258 241 289 q 297 228 274 228 z "},"も":{"ha":1051,"x_min":75,"x_max":972,"o":"m 75 699 l 75 901 l 285 901 q 296 1057 290 971 l 498 1057 q 488 901 492 971 l 784 901 l 784 699 l 477 699 q 473 639 475 669 q 471 581 472 609 l 690 581 l 690 384 l 467 384 q 485 203 457 269 q 605 136 513 137 q 709 159 677 137 q 755 214 741 180 q 769 285 769 248 q 760 378 769 327 q 732 506 751 430 l 936 506 q 972 254 972 363 q 960 161 972 216 q 909 52 948 106 q 798 -39 869 -3 q 605 -77 726 -75 q 384 -7 463 -76 q 283 166 305 61 q 269 384 260 271 l 75 384 l 75 581 l 271 581 q 272 639 271 609 q 275 699 273 669 l 75 699 z "},"ゃ":{"ha":967,"x_min":71,"x_max":892,"o":"m 71 597 q 180 650 126 629 q 157 818 165 755 q 148 883 148 880 l 330 883 q 338 789 332 836 q 350 699 345 743 q 405 709 378 704 q 463 718 431 715 q 437 842 453 796 q 418 888 420 887 l 586 888 q 608 802 597 848 q 624 715 620 755 q 823 630 757 700 q 892 449 890 560 q 857 303 891 361 q 762 216 823 245 q 633 180 701 186 q 499 191 566 175 l 499 362 q 670 357 621 339 q 716 452 719 376 q 695 500 716 479 q 630 534 674 522 q 502 547 586 547 q 441 541 475 547 q 376 524 408 534 q 444 213 408 347 q 507 2 480 79 q 534 -77 533 -75 l 339 -77 q 267 197 298 56 q 210 471 235 339 q 71 401 156 442 l 71 597 z "},"や":{"ha":1116,"x_min":69,"x_max":1035,"o":"m 69 723 q 198 785 134 761 q 170 983 180 910 q 160 1059 160 1057 l 373 1059 q 384 949 377 1004 q 397 842 391 895 q 462 855 431 849 q 529 865 492 861 q 499 1011 518 958 q 477 1066 480 1065 l 674 1066 q 701 963 688 1017 q 719 861 715 909 q 954 762 876 844 q 1035 549 1032 680 q 994 377 1034 445 q 882 274 954 309 q 730 233 810 239 q 572 245 651 227 l 572 446 q 774 441 716 419 q 829 552 831 463 q 803 609 827 583 q 727 649 779 635 q 576 663 675 663 q 505 656 544 663 q 427 636 465 650 q 509 271 467 429 q 582 22 551 113 q 614 -71 613 -68 l 384 -71 q 299 253 336 87 q 233 574 262 419 q 69 494 170 541 l 69 723 z "},"ゅ":{"ha":945,"x_min":99,"x_max":863,"o":"m 99 62 l 99 792 l 254 792 l 254 555 q 334 674 286 620 q 442 760 382 728 q 436 824 439 791 q 429 892 433 857 l 583 892 q 593 784 590 836 q 753 708 694 769 q 838 564 812 647 q 861 403 863 481 q 831 244 863 324 q 732 109 799 164 q 559 45 665 53 q 505 -84 544 -11 l 327 -84 q 393 71 369 -9 q 298 136 354 90 l 298 339 q 366 278 335 301 q 438 244 397 255 q 450 390 446 305 q 452 572 454 475 q 374 494 411 541 q 307 393 338 448 q 254 286 277 339 l 254 62 l 99 62 m 712 411 q 684 532 712 483 q 605 600 656 581 q 606 417 608 514 q 590 224 605 320 q 686 289 658 239 q 712 411 715 339 z "},"ゆ":{"ha":1086,"x_min":102,"x_max":1001,"o":"m 102 94 l 102 952 l 283 952 l 283 674 q 379 814 323 750 q 506 914 435 878 q 499 990 503 951 q 490 1072 495 1029 l 671 1072 q 684 943 680 1004 q 872 854 803 926 q 971 685 941 783 q 1000 495 1001 587 q 963 308 1001 401 q 846 149 925 214 q 643 73 768 83 q 579 -79 625 8 l 370 -79 q 449 104 419 9 q 336 180 403 126 l 336 420 q 416 348 380 374 q 500 308 453 321 q 516 479 511 380 q 517 694 521 579 q 427 603 469 658 q 348 484 384 548 q 283 358 312 419 l 283 94 l 102 94 m 823 505 q 791 646 823 589 q 697 726 758 704 q 699 511 701 625 q 680 285 697 397 q 793 361 760 302 q 823 505 826 419 z "},"ょ":{"ha":883,"x_min":80,"x_max":814,"o":"m 551 104 q 524 -6 551 34 q 450 -62 498 -46 q 350 -79 401 -79 q 221 -52 285 -79 q 119 28 157 -24 q 80 156 81 80 q 120 291 81 236 q 231 373 159 346 q 378 399 302 400 l 378 887 l 551 887 l 551 711 l 814 711 l 814 534 l 551 534 l 551 377 q 670 320 609 355 q 771 256 731 285 q 812 224 811 227 l 812 14 q 771 51 811 16 q 670 132 731 85 q 551 212 609 178 l 551 104 m 358 85 q 374 99 368 85 q 378 144 380 113 l 378 244 q 281 225 311 251 q 251 161 251 199 q 282 102 251 122 q 358 85 313 81 z "},"よ":{"ha":1008,"x_min":75,"x_max":939,"o":"m 629 144 q 598 14 629 61 q 510 -53 567 -34 q 392 -72 453 -72 q 241 -40 316 -72 q 121 54 165 -8 q 75 205 76 115 q 122 363 76 298 q 252 459 168 427 q 426 490 336 491 l 426 1065 l 629 1065 l 629 857 l 939 857 l 939 650 l 629 650 l 629 465 q 769 398 697 439 q 888 322 841 357 q 937 285 936 288 l 937 37 q 888 81 936 39 q 769 176 841 122 q 629 270 697 231 l 629 144 m 401 121 q 420 137 414 121 q 426 190 427 153 l 426 308 q 311 286 346 316 q 275 210 275 255 q 313 140 277 164 q 401 121 350 117 z "},"ら":{"ha":1040,"x_min":111,"x_max":949,"o":"m 218 1034 q 259 1035 220 1034 q 359 1037 298 1036 q 484 1035 419 1038 q 614 1025 549 1032 q 722 1012 678 1019 q 766 1005 765 1005 l 766 787 q 720 798 765 788 q 608 817 674 807 q 480 827 543 826 q 356 827 415 829 q 258 823 297 825 q 218 821 220 821 l 218 1034 m 111 307 l 111 746 l 311 746 l 311 528 q 339 551 312 529 q 424 597 366 574 q 557 628 481 621 q 767 597 677 637 q 902 479 857 556 q 948 301 947 403 q 762 0 949 91 q 202 -34 574 -91 l 202 172 q 484 144 374 144 q 649 167 594 145 q 726 224 704 189 q 746 302 749 260 q 724 378 746 342 q 661 435 703 415 q 540 442 618 454 q 401 385 463 426 q 300 307 340 345 l 111 307 z "},"り":{"ha":964,"x_min":99,"x_max":865,"o":"m 136 1047 l 339 1047 q 335 1010 339 1046 q 325 920 331 975 q 313 802 319 864 q 416 958 359 901 q 553 1021 472 1016 q 792 886 719 1025 q 865 490 865 746 q 711 85 865 229 q 256 -57 556 -58 l 256 148 q 513 200 429 155 q 631 323 598 245 q 662 490 663 400 q 638 718 665 631 q 553 808 612 806 q 473 773 511 807 q 411 689 435 739 q 367 589 387 639 q 339 507 347 540 q 324 443 332 484 q 316 340 316 401 q 319 301 319 317 q 320 283 320 285 l 111 283 q 107 336 111 285 q 101 469 103 388 q 99 639 99 549 q 111 817 103 723 q 127 977 119 910 q 136 1047 136 1043 z "},"る":{"ha":1036,"x_min":66,"x_max":939,"o":"m 161 1009 l 802 1009 l 802 819 l 560 642 q 764 629 684 666 q 890 511 845 591 q 937 324 935 431 q 884 123 939 209 q 741 -6 829 37 q 554 -60 654 -49 q 359 -43 454 -71 q 237 31 279 -20 q 193 163 194 83 q 216 270 191 213 q 300 357 241 327 q 458 372 358 387 q 600 305 547 355 q 684 180 652 255 q 726 247 713 210 q 736 327 738 283 q 688 436 736 397 q 530 472 640 475 q 353 435 423 468 q 227 353 283 401 l 66 220 l 66 477 l 490 798 l 161 798 l 161 1009 m 422 239 q 368 214 382 240 q 366 158 353 189 q 426 113 380 127 q 508 104 473 100 q 544 110 543 109 q 501 195 537 157 q 422 239 465 232 z "},"れ":{"ha":1074,"x_min":69,"x_max":1012,"o":"m 277 -76 l 277 305 q 173 157 220 225 q 69 4 126 90 l 69 326 q 277 606 190 487 l 277 644 l 69 644 l 69 852 l 277 852 l 277 1072 l 477 1072 l 477 780 q 591 873 526 841 q 715 910 655 905 q 844 882 796 917 q 907 783 892 846 q 917 640 922 719 q 911 531 914 594 q 904 403 907 468 q 899 288 901 338 q 897 221 897 239 q 904 194 897 199 q 921 190 911 189 q 958 205 937 193 q 1012 250 978 218 l 1012 24 q 935 -23 971 -8 q 849 -35 899 -38 q 725 39 766 -27 q 686 201 684 106 q 689 296 686 236 q 696 422 692 355 q 703 541 700 488 q 707 610 707 593 q 700 666 708 643 q 661 690 692 689 q 578 646 629 689 q 477 533 526 602 l 477 -76 l 277 -76 z "},"ろ":{"ha":1017,"x_min":61,"x_max":949,"o":"m 152 1024 l 792 1024 l 792 836 l 533 617 q 748 627 659 658 q 890 517 837 597 q 944 327 943 437 q 766 7 949 99 q 225 -22 583 -85 l 225 189 q 559 159 444 146 q 711 218 675 171 q 743 330 747 266 q 697 432 743 393 q 529 457 651 471 q 412 426 479 452 q 259 336 346 400 q 61 159 172 273 l 61 448 l 476 811 l 152 811 l 152 1024 z "},"ゎ":{"ha":975,"x_min":76,"x_max":886,"o":"m 252 -83 l 252 231 q 163 112 203 165 q 100 27 123 58 q 76 -5 76 -4 l 76 262 q 127 324 77 263 q 252 472 176 385 l 252 530 l 76 530 l 76 707 l 252 707 l 252 894 l 423 894 l 423 606 q 505 678 457 650 q 606 713 553 707 q 748 684 690 719 q 835 588 806 648 q 875 459 864 528 q 886 331 886 391 q 843 138 884 225 q 716 0 802 52 q 510 -52 631 -52 l 510 130 q 630 155 583 126 q 694 231 677 183 q 712 335 712 278 q 701 444 712 396 q 665 513 690 491 q 585 525 639 536 q 503 479 551 515 q 423 385 456 444 l 423 -83 l 252 -83 z "},"わ":{"ha":1101,"x_min":69,"x_max":1023,"o":"m 277 -76 l 277 292 q 172 153 220 216 q 97 53 125 90 q 69 15 69 16 l 69 328 q 130 402 72 331 q 277 576 189 473 l 277 644 l 69 644 l 69 852 l 277 852 l 277 1072 l 477 1072 l 477 734 q 575 819 518 785 q 693 860 632 852 q 860 825 792 867 q 962 713 928 784 q 1010 561 997 642 q 1023 410 1023 480 q 972 183 1021 285 q 823 20 924 81 q 581 -41 722 -41 l 581 174 q 721 203 666 170 q 797 292 776 236 q 818 415 818 347 q 805 543 818 487 q 762 625 792 598 q 667 639 732 651 q 572 585 628 627 q 477 473 517 543 l 477 -76 l 277 -76 z "},"ゐ":{"ha":1088,"x_min":66,"x_max":1021,"o":"m 157 1027 l 720 1027 q 711 884 719 945 q 699 757 704 822 q 854 680 796 734 q 941 561 913 627 q 978 434 970 495 q 983 317 986 373 q 974 237 979 260 q 1009 202 997 216 q 1021 189 1021 189 l 1021 -54 q 988 -13 1020 -52 q 909 76 956 26 q 810 -20 869 23 q 670 -65 750 -62 q 529 -16 585 -66 q 468 129 473 34 q 469 138 468 133 q 469 146 469 142 q 378 39 429 84 q 262 -8 327 -7 q 138 35 180 -7 q 81 142 95 76 q 76 286 66 209 q 110 419 83 345 q 189 566 137 494 q 323 690 241 637 q 509 762 404 743 q 511 806 510 787 q 511 837 511 825 l 157 837 l 157 1027 m 411 359 q 453 460 437 410 q 476 560 469 511 q 352 488 407 537 q 273 384 297 439 q 245 283 248 328 q 254 212 243 229 q 278 197 264 195 q 328 228 298 194 q 411 359 357 262 m 806 339 q 798 429 808 384 q 755 511 787 475 q 656 563 724 548 q 616 438 640 503 q 557 304 591 373 q 646 342 595 331 q 750 347 696 354 q 779 340 766 343 q 806 331 791 336 q 806 335 806 334 q 806 339 806 336 m 677 109 q 739 128 712 109 q 774 178 766 148 q 755 189 765 186 q 739 194 746 193 q 642 186 675 199 q 606 148 608 174 q 630 116 608 125 q 677 109 652 107 z "},"ゑ":{"ha":1021,"x_min":64,"x_max":996,"o":"m 160 1035 l 800 1035 l 800 869 l 650 776 q 860 704 774 773 q 952 510 945 635 q 897 346 954 411 q 747 248 841 281 l 878 248 q 945 109 918 179 q 983 -10 971 38 q 996 -60 996 -58 l 807 -60 q 780 42 796 -7 q 743 130 764 91 l 743 19 q 721 1 743 18 q 658 -31 699 -15 q 560 -50 617 -47 q 471 -25 511 -49 q 397 20 430 -1 q 338 34 365 41 q 211 -11 270 12 q 115 -50 152 -34 q 76 -66 77 -65 l 76 138 q 106 146 77 138 q 178 170 136 155 q 264 210 221 186 q 292 225 278 216 q 320 247 307 235 q 205 308 237 269 q 176 396 174 347 q 211 478 178 439 q 302 541 244 517 q 435 564 361 566 q 580 523 540 559 q 619 440 620 487 q 598 358 618 393 q 718 422 680 378 q 757 510 757 465 q 719 592 758 555 q 568 635 680 629 q 441 624 500 635 q 336 594 381 613 q 174 511 237 552 q 64 437 111 471 l 64 637 l 525 869 l 160 867 l 160 1035 m 389 444 q 312 414 320 439 q 365 374 304 389 q 397 368 382 370 q 427 365 411 365 q 451 416 454 389 q 389 444 448 444 m 568 134 q 644 153 602 136 q 715 187 685 171 q 700 213 707 202 q 688 233 693 224 q 597 220 646 222 q 498 222 549 218 l 431 164 q 474 161 456 170 q 514 144 492 153 q 568 134 536 134 z "},"を":{"ha":1027,"x_min":60,"x_max":966,"o":"m 64 749 l 64 936 l 355 936 q 379 1015 370 985 q 388 1046 388 1046 l 593 1046 q 585 1016 591 1046 q 560 936 578 986 l 869 936 l 869 749 l 471 749 q 454 715 471 745 q 426 659 438 685 q 441 671 427 661 q 465 684 456 681 q 607 685 556 718 q 675 583 658 652 q 819 652 751 624 q 926 696 886 681 q 966 711 966 711 l 966 491 q 924 477 964 491 q 819 441 883 464 q 688 388 754 418 q 688 255 688 309 q 688 198 688 201 l 502 198 q 502 227 502 199 q 502 296 502 254 q 489 287 500 294 q 469 275 477 279 q 420 184 411 227 q 519 140 430 142 q 699 151 614 141 q 838 172 784 161 q 894 183 892 182 l 894 -41 q 791 -54 892 -43 q 507 -62 690 -64 q 332 -11 400 -58 q 242 111 263 37 q 256 267 221 184 q 389 419 292 349 q 446 456 418 438 q 502 491 473 473 q 490 525 500 515 q 449 530 479 534 q 385 498 423 524 q 304 437 346 473 q 225 369 262 401 q 111 249 159 296 q 60 201 62 202 l 60 453 q 93 482 61 453 q 165 564 125 511 q 251 686 206 617 q 271 724 260 703 q 282 749 281 746 l 64 749 z "},"ん":{"ha":1072,"x_min":56,"x_max":1002,"o":"m 355 1043 l 585 1043 q 513 836 545 932 q 444 614 481 741 q 511 652 450 627 q 637 651 572 678 q 715 547 701 624 q 726 389 730 471 q 728 253 722 312 q 766 190 735 194 q 830 221 793 190 q 907 294 867 252 q 974 367 947 335 q 1002 399 1001 399 l 1002 109 q 928 22 964 56 q 844 -37 892 -12 q 736 -62 795 -62 q 572 38 616 -56 q 534 285 528 132 q 532 408 540 362 q 471 439 525 453 q 410 397 438 430 q 368 323 382 365 q 340 241 353 281 q 304 97 323 171 q 270 -46 286 23 l 56 -46 q 141 301 100 144 q 236 650 182 458 q 355 1043 290 842 z "},"ァ":{"ha":932,"x_min":75,"x_max":853,"o":"m 75 675 l 75 853 l 853 853 l 853 675 q 766 458 826 548 q 649 327 707 368 q 556 268 591 286 q 519 251 521 250 l 519 449 q 549 466 521 448 q 612 534 576 484 q 666 675 647 583 l 75 675 m 75 107 q 112 117 76 107 q 191 160 148 126 q 269 265 235 194 q 304 458 302 336 l 304 564 l 477 564 l 477 452 q 432 213 476 311 q 330 55 388 115 q 213 -37 271 -5 q 75 -92 155 -69 l 75 107 z "},"ア":{"ha":1046,"x_min":71,"x_max":987,"o":"m 71 821 l 71 1028 l 987 1028 l 987 821 q 884 564 955 670 q 746 410 814 457 q 637 340 678 362 q 594 320 595 319 l 594 553 q 629 574 595 552 q 703 653 662 595 q 766 821 745 711 l 71 821 m 71 152 q 115 162 72 151 q 208 214 157 174 q 299 337 259 254 q 340 564 339 420 l 340 689 l 545 689 l 545 556 q 491 276 543 391 q 371 90 439 161 q 234 -18 302 19 q 71 -83 165 -56 l 71 152 z "},"ィ":{"ha":873,"x_min":62,"x_max":840,"o":"m 840 864 q 722 675 792 764 q 594 521 652 586 l 594 -85 l 412 -85 l 412 380 q 242 267 324 309 q 111 207 160 224 q 62 190 62 190 l 62 376 q 120 399 62 376 q 267 477 178 423 q 454 627 357 532 q 632 864 551 723 l 840 864 z "},"イ":{"ha":1010,"x_min":58,"x_max":974,"o":"m 974 1040 q 835 818 917 922 q 685 636 753 713 l 685 -77 l 471 -77 l 471 471 q 270 336 366 387 q 117 267 174 286 q 58 247 60 247 l 58 465 q 127 493 60 465 q 300 585 195 521 q 519 762 406 650 q 730 1040 633 873 l 974 1040 z "},"ゥ":{"ha":932,"x_min":98,"x_max":830,"o":"m 98 240 l 98 735 l 380 735 l 380 888 l 534 888 l 534 735 l 830 735 l 830 553 q 785 292 829 404 q 673 115 741 180 q 534 7 606 49 q 396 -54 461 -34 q 291 -80 331 -73 q 248 -85 251 -87 l 248 91 q 293 97 251 90 q 397 130 335 104 q 522 207 460 156 q 617 342 583 258 q 652 557 651 427 l 652 563 l 275 563 l 275 240 l 98 240 z "},"ウ":{"ha":1039,"x_min":87,"x_max":949,"o":"m 87 304 l 87 887 l 419 887 l 419 1066 l 601 1066 l 601 887 l 949 887 l 949 673 q 895 365 947 496 q 765 156 844 233 q 601 30 686 79 q 439 -42 515 -19 q 315 -73 362 -65 q 264 -79 267 -80 l 264 129 q 317 136 267 127 q 439 175 366 145 q 586 264 513 205 q 699 424 659 324 q 739 677 738 524 l 739 684 l 296 684 l 296 304 l 87 304 z "},"ェ":{"ha":887,"x_min":65,"x_max":825,"o":"m 87 644 l 87 825 l 800 825 l 800 644 l 541 644 l 541 161 l 825 161 l 825 -19 l 65 -19 l 65 161 l 353 161 l 353 644 l 87 644 z "},"エ":{"ha":1019,"x_min":64,"x_max":956,"o":"m 88 779 l 88 991 l 928 991 l 928 779 l 623 779 l 623 212 l 956 212 l 956 -1 l 64 -1 l 64 212 l 401 212 l 401 779 l 88 779 z "},"ォ":{"ha":886,"x_min":65,"x_max":825,"o":"m 513 -87 l 513 415 q 378 191 456 283 q 229 42 300 99 q 112 -39 157 -15 q 65 -64 66 -64 l 65 144 q 101 165 66 144 q 191 236 136 187 q 306 368 247 285 q 416 572 365 450 l 65 572 l 65 749 l 513 749 l 513 892 l 693 892 l 693 749 l 825 749 l 825 572 l 693 572 l 693 -87 l 513 -87 z "},"オ":{"ha":1015,"x_min":64,"x_max":956,"o":"m 590 -81 l 590 510 q 431 246 522 354 q 256 71 339 138 q 119 -25 172 4 q 64 -54 65 -54 l 64 190 q 106 216 65 190 q 212 299 146 241 q 347 454 277 357 q 476 694 416 551 l 64 694 l 64 902 l 590 902 l 590 1072 l 802 1072 l 802 902 l 956 902 l 956 694 l 802 694 l 802 -81 l 590 -81 z "},"カ":{"ha":1044,"x_min":66,"x_max":928,"o":"m 75 658 l 75 871 l 311 871 l 311 1061 l 515 1061 l 515 871 l 926 871 l 926 661 q 916 218 928 397 q 843 -7 903 38 q 705 -61 783 -53 q 577 -58 632 -68 q 491 -36 522 -49 q 458 -22 460 -23 l 458 193 q 486 180 460 193 q 557 158 513 168 q 659 156 602 148 q 691 175 677 157 q 710 243 705 193 q 720 394 715 294 q 723 658 726 494 l 510 658 q 449 306 509 453 q 292 68 389 159 q 132 -56 195 -23 q 66 -88 68 -88 l 66 157 q 181 250 127 190 q 269 405 235 309 q 305 658 302 500 l 75 658 z "},"ガ":{"ha":1050,"x_min":66,"x_max":929,"o":"m 689 922 l 689 1118 l 783 1118 l 783 922 l 689 922 m 836 922 l 836 1118 l 929 1118 l 929 922 l 836 922 m 75 658 l 75 871 l 311 871 l 311 1061 l 515 1061 l 515 871 l 926 871 l 926 661 q 916 218 928 397 q 843 -7 903 38 q 705 -61 783 -53 q 577 -58 632 -68 q 491 -36 522 -49 q 458 -22 460 -23 l 458 193 q 486 180 460 193 q 557 158 513 168 q 659 156 602 148 q 691 175 677 157 q 710 243 705 193 q 720 394 715 294 q 723 658 726 494 l 510 658 q 449 306 509 453 q 292 68 389 159 q 132 -56 195 -23 q 66 -88 68 -88 l 66 157 q 181 250 127 190 q 269 405 235 309 q 305 658 302 500 l 75 658 z "},"キ":{"ha":1038,"x_min":66,"x_max":975,"o":"m 66 674 l 66 882 l 385 882 l 373 1066 l 590 1066 l 604 882 l 975 882 l 975 674 l 617 674 l 629 492 l 975 492 l 975 279 l 646 279 l 670 -71 l 452 -71 l 427 279 l 66 279 l 66 492 l 412 492 l 400 674 l 66 674 z "},"ギ":{"ha":1055,"x_min":66,"x_max":978,"o":"m 738 933 l 738 1128 l 831 1128 l 831 933 l 738 933 m 884 933 l 884 1128 l 978 1128 l 978 933 l 884 933 m 66 674 l 66 882 l 385 882 l 373 1066 l 590 1066 l 604 882 l 975 882 l 975 674 l 617 674 l 629 492 l 975 492 l 975 279 l 646 279 l 670 -71 l 452 -71 l 427 279 l 66 279 l 66 492 l 412 492 l 400 674 l 66 674 z "},"ク":{"ha":1004,"x_min":66,"x_max":925,"o":"m 509 1072 q 495 998 503 1034 q 479 930 487 963 l 925 930 l 925 723 q 848 412 910 547 q 698 190 785 277 q 519 50 610 103 q 348 -34 427 -3 q 218 -77 269 -65 q 167 -87 168 -88 l 167 133 q 220 146 168 132 q 349 197 273 160 q 507 308 425 233 q 641 480 590 382 q 709 728 692 578 l 396 728 q 243 530 317 606 q 119 419 168 454 q 66 385 69 384 l 66 647 q 97 672 68 647 q 164 753 126 697 q 238 885 202 808 q 294 1072 274 962 l 509 1072 z "},"グ":{"ha":1020,"x_min":66,"x_max":929,"o":"m 689 987 l 689 1183 l 783 1183 l 783 987 l 689 987 m 836 987 l 836 1183 l 929 1183 l 929 987 l 836 987 m 509 1072 q 495 998 503 1034 q 479 930 487 963 l 925 930 l 925 723 q 848 412 910 547 q 698 190 785 277 q 519 50 610 103 q 348 -34 427 -3 q 218 -77 269 -65 q 167 -87 168 -88 l 167 133 q 220 146 168 132 q 349 197 273 160 q 507 308 425 233 q 641 480 590 382 q 709 728 692 578 l 396 728 q 243 530 317 606 q 119 419 168 454 q 66 385 69 384 l 66 647 q 97 672 68 647 q 164 753 126 697 q 238 885 202 808 q 294 1072 274 962 l 509 1072 z "},"ケ":{"ha":1066,"x_min":61,"x_max":1013,"o":"m 503 1077 q 480 963 494 1017 q 450 861 467 909 l 1013 861 l 1013 644 l 799 644 q 702 315 777 448 q 534 106 627 182 q 361 -11 442 31 q 227 -68 279 -53 q 174 -83 175 -84 l 174 137 q 229 155 176 136 q 355 227 281 174 q 496 380 430 279 q 585 644 562 480 l 358 644 q 224 466 293 533 q 109 370 155 399 q 61 340 64 340 l 61 589 q 91 613 62 587 q 155 696 119 639 q 229 848 190 754 q 289 1077 269 943 l 503 1077 z "},"ゲ":{"ha":1070,"x_min":61,"x_max":1016,"o":"m 776 911 l 776 1107 l 869 1107 l 869 911 l 776 911 m 922 911 l 922 1107 l 1016 1107 l 1016 911 l 922 911 m 503 1077 q 480 963 494 1017 q 450 861 467 909 l 1013 861 l 1013 644 l 799 644 q 702 315 777 448 q 534 106 627 182 q 361 -11 442 31 q 227 -68 279 -53 q 174 -83 175 -84 l 174 137 q 229 155 176 136 q 355 227 281 174 q 496 380 430 279 q 585 644 562 480 l 358 644 q 224 466 293 533 q 109 370 155 399 q 61 340 64 340 l 61 589 q 91 613 62 587 q 155 696 119 639 q 229 848 190 754 q 289 1077 269 943 l 503 1077 z "},"コ":{"ha":1021,"x_min":71,"x_max":905,"o":"m 71 779 l 71 991 l 905 991 l 905 -1 l 71 -1 l 71 212 l 684 212 l 684 779 l 71 779 z "},"ゴ":{"ha":1053,"x_min":71,"x_max":1054,"o":"m 71 779 l 71 991 l 814 991 l 814 1112 l 906 1112 l 906 -1 l 71 -1 l 71 212 l 684 212 l 684 779 l 71 779 m 960 917 l 960 1112 l 1054 1112 l 1054 917 l 960 917 z "},"サ":{"ha":1074,"x_min":61,"x_max":1013,"o":"m 199 349 l 199 650 l 61 650 l 61 867 l 199 867 l 199 1057 l 404 1057 l 404 867 l 663 867 l 663 1062 l 868 1062 l 868 867 l 1013 867 l 1013 650 l 868 650 l 868 460 q 808 222 865 317 q 662 68 751 126 q 488 -18 572 11 q 345 -56 403 -46 q 286 -65 288 -65 l 286 155 q 326 160 288 155 q 422 182 365 165 q 532 233 480 199 q 623 323 583 267 q 663 460 662 378 l 663 650 l 404 650 l 404 349 l 199 349 z "},"ザ":{"ha":1133,"x_min":61,"x_max":1162,"o":"m 199 349 l 199 650 l 61 650 l 61 867 l 199 867 l 199 1057 l 404 1057 l 404 867 l 663 867 l 663 1062 l 868 1062 l 868 867 l 1013 867 l 1013 650 l 868 650 l 868 460 q 808 222 865 317 q 662 68 751 126 q 488 -18 572 11 q 345 -56 403 -46 q 286 -65 288 -65 l 286 155 q 326 160 288 155 q 422 182 365 165 q 532 233 480 199 q 623 323 583 267 q 663 460 662 378 l 663 650 l 404 650 l 404 349 l 199 349 m 922 917 l 922 1112 l 1016 1112 l 1016 917 l 922 917 m 1069 917 l 1069 1112 l 1162 1112 l 1162 917 l 1069 917 z "},"シ":{"ha":1035,"x_min":85,"x_max":987,"o":"m 987 777 q 806 373 920 529 q 569 132 692 217 q 336 12 446 47 q 157 -29 227 -23 q 85 -34 87 -35 l 85 187 q 141 189 87 186 q 280 217 195 193 q 458 311 365 241 q 631 486 552 380 q 772 777 711 593 l 987 777 m 85 808 l 85 1021 l 483 1021 l 483 808 l 85 808 m 85 479 l 85 692 l 483 692 l 483 479 l 85 479 z "},"ジ":{"ha":1057,"x_min":85,"x_max":1000,"o":"m 760 830 l 760 1025 l 853 1025 l 853 830 l 760 830 m 906 830 l 906 1025 l 1000 1025 l 1000 830 l 906 830 m 987 777 q 806 373 920 529 q 569 132 692 217 q 336 12 446 47 q 157 -29 227 -23 q 85 -34 87 -35 l 85 187 q 141 189 87 186 q 280 217 195 193 q 458 311 365 241 q 631 486 552 380 q 772 777 711 593 l 987 777 m 85 808 l 85 1021 l 483 1021 l 483 808 l 85 808 m 85 479 l 85 692 l 483 692 l 483 479 l 85 479 z "},"ス":{"ha":1008,"x_min":62,"x_max":947,"o":"m 113 796 l 113 1015 l 892 1015 q 805 723 864 857 q 675 480 746 589 q 797 334 736 400 q 901 231 857 267 q 947 194 945 195 l 947 -65 q 814 38 873 -12 q 686 159 754 88 q 555 316 618 231 q 386 139 472 214 q 227 18 300 64 q 109 -50 153 -28 q 62 -71 64 -71 l 62 172 q 275 319 180 232 q 452 515 369 406 q 604 796 534 625 l 113 796 z "},"ズ":{"ha":1061,"x_min":62,"x_max":1076,"o":"m 982 911 l 982 1107 l 1076 1107 l 1076 911 l 982 911 m 113 796 l 113 1015 l 836 1015 l 836 1107 l 929 1107 l 929 911 l 869 911 q 806 723 844 812 q 675 480 746 589 q 797 334 736 400 q 901 231 857 267 q 947 194 945 195 l 947 -65 q 814 38 873 -12 q 686 159 754 88 q 555 316 618 231 q 386 139 472 214 q 227 18 300 64 q 109 -50 153 -28 q 62 -71 64 -71 l 62 172 q 275 319 180 232 q 452 515 369 406 q 604 796 534 625 l 113 796 z "},"セ":{"ha":1085,"x_min":76,"x_max":1002,"o":"m 76 663 l 76 872 l 235 878 l 235 1067 l 438 1067 l 438 884 l 1002 903 l 1002 693 l 1001 693 q 888 481 967 566 q 733 347 810 396 q 603 278 656 298 q 547 258 549 258 l 547 472 q 578 483 548 471 q 650 521 608 495 q 726 587 692 547 q 783 688 761 628 l 438 674 q 435 454 434 548 q 438 286 435 359 q 452 224 442 250 q 488 183 461 198 q 583 165 514 168 q 719 166 650 164 q 848 172 788 168 q 944 180 907 176 q 982 184 981 184 l 982 -34 q 920 -37 981 -34 q 769 -43 860 -41 q 562 -42 678 -45 q 332 22 414 -38 q 240 241 251 83 q 235 446 237 349 q 233 667 233 543 l 76 663 z "},"ゼ":{"ha":1090,"x_min":76,"x_max":1005,"o":"m 765 949 l 765 1145 l 859 1145 l 859 949 l 765 949 m 911 949 l 911 1145 l 1005 1145 l 1005 949 l 911 949 m 76 663 l 76 872 l 235 878 l 235 1067 l 438 1067 l 438 884 l 1002 903 l 1002 693 l 1001 693 q 888 481 967 566 q 733 347 810 396 q 603 278 656 298 q 547 258 549 258 l 547 472 q 578 483 548 471 q 650 521 608 495 q 726 587 692 547 q 783 688 761 628 l 438 674 q 435 454 434 548 q 438 286 435 359 q 452 224 442 250 q 488 183 461 198 q 583 165 514 168 q 719 166 650 164 q 848 172 788 168 q 944 180 907 176 q 982 184 981 184 l 982 -34 q 920 -37 981 -34 q 769 -43 860 -41 q 562 -42 678 -45 q 332 22 414 -38 q 240 241 251 83 q 235 446 237 349 q 233 667 233 543 l 76 663 z "},"ソ":{"ha":1023,"x_min":47,"x_max":951,"o":"m 264 1025 l 433 502 l 213 502 l 47 1025 l 264 1025 m 164 -45 l 164 178 q 441 299 332 206 q 608 515 551 392 q 696 754 666 637 q 734 948 726 871 q 742 1028 743 1025 l 951 1028 q 918 774 940 887 q 846 532 895 662 q 707 280 798 401 q 484 71 616 159 q 164 -45 353 -16 z "},"ゾ":{"ha":1092,"x_min":47,"x_max":1135,"o":"m 1042 906 l 1042 1101 l 1135 1101 l 1135 906 l 1042 906 m 264 1025 l 433 502 l 213 502 l 47 1025 l 264 1025 m 164 -45 l 164 178 q 441 299 332 206 q 608 515 551 392 q 696 754 666 637 q 734 948 726 871 q 742 1028 743 1025 l 895 1028 l 895 1101 l 989 1101 l 989 906 l 939 906 q 918 774 930 836 q 846 532 895 662 q 707 280 798 401 q 484 71 616 159 q 164 -45 353 -16 z "},"タ":{"ha":1048,"x_min":76,"x_max":960,"o":"m 518 1072 q 505 1000 511 1032 q 496 966 498 968 l 960 966 l 960 758 q 882 435 944 572 q 728 207 821 298 q 541 56 636 115 q 363 -34 446 -3 q 229 -77 281 -65 q 176 -87 178 -88 l 176 133 q 224 144 178 133 q 341 186 270 156 q 490 269 412 216 q 632 408 567 323 l 381 408 l 381 610 l 713 610 q 739 764 735 689 l 420 764 q 258 532 336 608 q 129 420 179 457 q 76 385 79 384 l 76 647 q 106 672 77 647 q 174 750 136 697 q 249 882 213 803 q 305 1072 285 962 l 518 1072 z "},"ダ":{"ha":1050,"x_min":76,"x_max":962,"o":"m 722 1015 l 722 1210 l 815 1210 l 815 1015 l 722 1015 m 868 1015 l 868 1210 l 962 1210 l 962 1015 l 868 1015 m 518 1072 q 505 1000 511 1032 q 496 966 498 968 l 960 966 l 960 758 q 882 435 944 572 q 728 207 821 298 q 541 56 636 115 q 363 -34 446 -3 q 229 -77 281 -65 q 176 -87 178 -88 l 176 133 q 224 144 178 133 q 341 186 270 156 q 490 269 412 216 q 632 408 567 323 l 381 408 l 381 610 l 713 610 q 739 764 735 689 l 420 764 q 258 532 336 608 q 129 420 179 457 q 76 385 79 384 l 76 647 q 106 672 77 647 q 174 750 136 697 q 249 882 213 803 q 305 1072 285 962 l 518 1072 z "},"チ":{"ha":1020,"x_min":68,"x_max":958,"o":"m 68 442 l 68 654 l 431 654 l 431 807 l 106 807 l 106 1019 l 918 1019 l 918 807 l 647 807 l 647 654 l 958 654 l 958 442 l 646 442 q 570 218 633 309 q 429 71 506 127 q 277 -16 353 14 q 153 -58 202 -46 q 102 -69 103 -69 l 102 156 q 151 165 104 155 q 258 206 197 176 q 366 293 319 236 q 427 442 414 350 l 68 442 z "},"ヂ":{"ha":1031,"x_min":68,"x_max":962,"o":"m 739 808 l 739 1020 l 826 1020 l 826 808 l 739 808 m 875 808 l 875 1020 l 962 1020 l 962 808 l 875 808 m 68 442 l 68 654 l 431 654 l 431 808 l 106 808 l 106 1019 l 690 1019 l 690 808 l 647 808 l 647 654 l 958 654 l 958 442 l 646 442 q 570 218 633 309 q 429 71 506 127 q 277 -16 353 14 q 153 -58 202 -46 q 102 -69 103 -69 l 102 156 q 151 165 104 155 q 258 206 197 176 q 366 293 319 236 q 427 442 414 350 l 68 442 z "},"ッ":{"ha":887,"x_min":65,"x_max":819,"o":"m 205 857 l 286 392 l 144 392 l 65 857 l 205 857 m 431 857 l 515 392 l 370 392 l 292 857 l 431 857 m 152 -57 l 152 133 q 387 236 294 157 q 527 419 480 315 q 598 623 574 524 q 631 787 623 722 q 637 856 639 853 l 819 856 q 791 640 810 735 q 730 433 772 544 q 612 220 689 323 q 424 42 536 117 q 152 -57 312 -33 z "},"ツ":{"ha":1017,"x_min":69,"x_max":956,"o":"m 233 1031 l 330 483 l 161 483 l 69 1031 l 233 1031 m 499 1031 l 598 483 l 429 483 l 335 1031 l 499 1031 m 171 -45 l 171 178 q 448 299 339 206 q 612 515 557 392 q 696 754 667 637 q 734 948 726 871 q 742 1028 743 1025 l 956 1028 q 923 774 945 887 q 852 532 901 662 q 713 280 803 401 q 491 71 623 159 q 171 -45 359 -16 z "},"ヅ":{"ha":1097,"x_min":69,"x_max":1135,"o":"m 1042 906 l 1042 1101 l 1135 1101 l 1135 906 l 1042 906 m 233 1031 l 330 483 l 161 483 l 69 1031 l 233 1031 m 499 1031 l 598 484 q 613 515 605 499 q 696 754 667 637 q 734 948 726 871 q 742 1028 743 1025 l 895 1028 l 895 1101 l 989 1101 l 989 906 l 944 906 q 924 774 936 836 q 852 532 901 662 q 713 280 803 401 q 491 71 623 159 q 171 -45 359 -16 l 171 178 q 449 300 339 206 q 597 483 543 380 l 429 483 l 335 1031 l 499 1031 z "},"テ":{"ha":1032,"x_min":73,"x_max":958,"o":"m 73 463 l 73 670 l 958 670 l 958 463 l 675 463 q 606 221 665 317 q 462 69 548 125 q 296 -12 376 14 q 165 -45 217 -38 q 111 -52 113 -53 l 111 167 q 163 173 113 165 q 281 208 213 180 q 398 296 350 236 q 456 463 446 357 l 73 463 m 111 812 l 111 1020 l 921 1020 l 921 812 l 111 812 z "},"デ":{"ha":1032,"x_min":73,"x_max":962,"o":"m 73 463 l 73 670 l 958 670 l 958 463 l 675 463 q 606 221 665 317 q 462 69 548 125 q 296 -12 376 14 q 165 -45 217 -38 q 111 -52 113 -53 l 111 167 q 163 173 113 165 q 281 208 213 180 q 398 296 350 236 q 456 463 446 357 l 73 463 m 111 812 l 111 1020 l 688 1020 l 688 812 l 111 812 m 739 808 l 739 1020 l 826 1020 l 826 808 l 739 808 m 875 808 l 875 1020 l 962 1020 l 962 808 l 875 808 z "},"ト":{"ha":978,"x_min":121,"x_max":905,"o":"m 121 -71 l 121 1066 l 335 1066 l 335 700 l 905 700 l 905 487 l 335 487 l 335 -71 l 121 -71 z "},"ド":{"ha":978,"x_min":121,"x_max":905,"o":"m 467 868 l 467 1063 l 560 1063 l 560 868 l 467 868 m 613 868 l 613 1063 l 707 1063 l 707 868 l 613 868 m 121 -71 l 121 1066 l 335 1066 l 335 700 l 905 700 l 905 487 l 335 487 l 335 -71 l 121 -71 z "},"ナ":{"ha":1074,"x_min":65,"x_max":1009,"o":"m 65 609 l 65 826 l 449 826 l 449 1066 l 666 1066 l 666 826 l 1009 826 l 1009 609 l 666 609 l 666 446 q 601 208 662 298 q 462 65 540 118 q 305 -20 384 12 q 174 -65 227 -53 q 119 -76 121 -77 l 119 146 q 155 154 121 146 q 241 182 190 161 q 343 241 292 202 q 421 340 395 279 q 449 490 448 401 l 449 609 l 65 609 z "},"ニ":{"ha":987,"x_min":64,"x_max":924,"o":"m 90 779 l 90 991 l 895 991 l 895 779 l 90 779 m 64 212 l 924 212 l 924 -1 l 64 -1 l 64 212 z "},"ヌ":{"ha":998,"x_min":64,"x_max":929,"o":"m 114 793 l 114 1010 l 916 1010 q 836 711 888 848 q 703 463 784 574 q 871 328 812 385 q 929 270 929 271 l 929 -33 q 882 20 928 -30 q 755 146 837 71 q 582 294 674 222 q 396 132 484 195 q 233 31 308 69 q 111 -26 157 -8 q 64 -43 65 -45 l 64 183 q 118 205 66 183 q 249 275 170 227 q 410 403 328 323 q 309 448 365 427 q 206 476 252 468 l 206 693 q 385 641 296 675 q 538 566 475 606 q 596 667 571 612 q 640 793 621 723 l 114 793 z "},"ネ":{"ha":1062,"x_min":62,"x_max":993,"o":"m 114 713 l 114 922 l 429 922 l 429 1072 l 643 1072 l 643 922 l 983 922 q 916 760 966 849 q 804 600 865 670 q 697 484 742 529 q 840 387 773 425 q 949 333 907 350 q 993 317 990 316 l 993 80 q 937 100 990 80 q 801 167 884 119 q 637 277 718 214 l 637 -71 l 434 -71 l 434 258 q 258 155 345 195 q 119 98 172 115 q 62 80 65 80 l 62 296 q 125 319 65 296 q 278 392 186 342 q 463 522 370 442 q 633 713 556 601 l 114 713 z "},"ノ":{"ha":979,"x_min":71,"x_max":920,"o":"m 71 -34 l 71 189 q 367 310 255 217 q 549 526 479 403 q 651 765 618 648 q 700 1039 684 882 l 920 1039 q 879 785 903 898 q 800 543 854 673 q 650 291 745 412 q 414 82 556 170 q 71 -34 273 -5 z "},"ハ":{"ha":1040,"x_min":43,"x_max":1004,"o":"m 43 -19 q 69 38 45 -18 q 126 196 94 94 q 184 439 159 298 q 210 750 209 579 l 210 1034 l 420 1034 l 420 750 q 401 418 420 562 q 351 177 381 274 q 302 31 321 80 q 282 -19 282 -19 l 43 -19 m 1004 -19 l 777 -19 q 699 177 726 80 q 649 418 671 274 q 627 750 627 562 l 627 1034 l 837 1034 l 837 750 q 863 439 838 579 q 921 196 888 298 q 978 38 954 94 q 1004 -19 1002 -18 z "},"バ":{"ha":1100,"x_min":43,"x_max":1135,"o":"m 895 836 l 895 1031 l 989 1031 l 989 836 l 895 836 m 1042 836 l 1042 1031 l 1135 1031 l 1135 836 l 1042 836 m 43 -19 q 69 38 45 -18 q 126 196 94 94 q 184 439 159 298 q 210 750 209 579 l 210 1034 l 420 1034 l 420 750 q 401 418 420 562 q 351 177 381 274 q 302 31 321 80 q 282 -19 282 -19 l 43 -19 m 1004 -19 l 777 -19 q 699 177 726 80 q 649 418 671 274 q 627 750 627 562 l 627 1034 l 837 1034 l 837 750 q 863 439 838 579 q 921 196 888 298 q 978 38 954 94 q 1004 -19 1002 -18 z "},"パ":{"ha":1054,"x_min":43,"x_max":1004,"o":"m 921 1032 q 901 1081 921 1062 q 853 1100 882 1100 q 806 1081 825 1100 q 787 1032 787 1062 q 806 985 787 1004 q 853 966 825 966 q 901 985 882 966 q 921 1032 921 1004 m 747 1139 q 853 1183 791 1183 q 960 1139 916 1183 q 1004 1032 1004 1095 q 960 926 1004 970 q 853 883 916 883 q 837 884 845 883 l 837 750 q 863 439 838 579 q 921 196 888 298 q 978 38 954 94 q 1004 -19 1002 -18 l 777 -19 q 699 177 726 80 q 649 418 671 274 q 627 750 627 562 l 627 1034 l 704 1034 q 747 1139 704 1095 m 43 -19 q 69 38 45 -18 q 126 196 94 94 q 184 439 159 298 q 210 750 209 579 l 210 1034 l 420 1034 l 420 750 q 401 418 420 562 q 351 177 381 274 q 302 31 321 80 q 282 -19 282 -19 l 43 -19 z "},"ヒ":{"ha":983,"x_min":122,"x_max":910,"o":"m 122 1036 l 330 1036 l 330 857 l 910 857 l 910 644 l 330 644 l 330 293 q 363 211 332 241 q 477 176 393 180 q 690 182 597 175 q 910 209 784 189 l 910 -8 q 686 -28 788 -22 q 461 -31 585 -34 q 221 46 312 -24 q 122 273 130 117 l 122 1036 z "},"ビ":{"ha":991,"x_min":122,"x_max":913,"o":"m 673 906 l 673 1101 l 766 1101 l 766 906 l 673 906 m 819 906 l 819 1101 l 913 1101 l 913 906 l 819 906 m 122 1036 l 330 1036 l 330 857 l 910 857 l 910 644 l 330 644 l 330 293 q 363 211 332 241 q 477 176 393 180 q 690 182 597 175 q 910 209 784 189 l 910 -8 q 686 -28 788 -22 q 461 -31 585 -34 q 221 46 312 -24 q 122 273 130 117 l 122 1036 z "},"ピ":{"ha":1028,"x_min":122,"x_max":1058,"o":"m 975 929 q 956 978 975 959 q 907 997 936 997 q 860 978 879 997 q 841 929 841 959 q 860 882 841 901 q 907 863 879 863 q 956 882 936 863 q 975 929 975 901 m 802 1036 q 907 1080 845 1080 q 1014 1036 970 1080 q 1058 929 1058 991 q 1015 823 1058 867 q 910 780 971 781 l 910 644 l 330 644 l 330 293 q 363 211 332 241 q 477 176 393 180 q 690 182 597 175 q 910 209 784 189 l 910 -8 q 686 -28 788 -22 q 461 -31 585 -34 q 221 46 312 -24 q 122 273 130 117 l 122 1036 l 330 1036 l 330 857 l 776 857 q 758 929 758 890 q 802 1036 758 991 z "},"フ":{"ha":1008,"x_min":83,"x_max":914,"o":"m 83 793 l 83 1010 l 914 1010 l 914 811 q 852 468 911 612 q 709 231 792 324 q 534 87 627 138 q 359 9 442 35 q 224 -25 277 -18 q 171 -31 172 -33 l 171 186 q 359 233 279 202 q 519 330 439 263 q 648 508 598 396 q 705 793 699 620 l 83 793 z "},"ブ":{"ha":1080,"x_min":83,"x_max":1108,"o":"m 1015 895 l 1015 1090 l 1108 1090 l 1108 895 l 1015 895 m 83 793 l 83 1010 l 868 1010 l 868 1090 l 962 1090 l 962 895 l 914 895 l 914 811 q 852 468 911 612 q 709 231 792 324 q 534 87 627 138 q 359 9 442 35 q 224 -25 277 -18 q 171 -31 172 -33 l 171 186 q 359 233 279 202 q 519 330 439 263 q 648 508 598 396 q 705 793 699 620 l 83 793 z "},"プ":{"ha":1039,"x_min":83,"x_max":1069,"o":"m 986 1010 q 966 1059 986 1040 q 918 1078 947 1078 q 871 1059 890 1078 q 852 1010 852 1040 q 871 963 852 982 q 918 944 890 944 q 966 963 947 944 q 986 1010 986 982 m 812 1118 q 918 1161 856 1161 q 1025 1117 981 1161 q 1069 1010 1069 1073 q 1025 905 1069 948 q 918 861 981 861 q 914 861 916 861 l 914 811 q 852 468 911 612 q 709 231 792 324 q 534 87 627 138 q 359 9 442 35 q 224 -25 277 -18 q 171 -31 172 -33 l 171 186 q 359 233 279 202 q 519 330 439 263 q 648 508 598 396 q 705 793 699 620 l 83 793 l 83 1010 l 769 1010 q 812 1118 769 1073 z "},"ヘ":{"ha":1047,"x_min":71,"x_max":970,"o":"m 71 567 q 163 724 125 659 q 237 850 201 789 q 294 944 274 911 q 348 1000 320 983 q 396 1021 376 1017 q 416 1023 416 1024 q 484 1006 457 1020 q 532 960 510 993 q 596 863 548 936 q 707 694 644 789 q 829 509 770 600 q 970 297 888 419 l 970 -95 q 445 713 456 694 q 424 739 431 735 q 416 741 416 742 q 411 738 416 742 q 392 713 406 734 q 344 640 380 697 q 262 505 308 582 q 144 305 217 429 q 71 180 71 182 l 71 567 z "},"ベ":{"ha":1047,"x_min":71,"x_max":978,"o":"m 738 814 l 738 1009 l 831 1009 l 831 814 l 738 814 m 884 814 l 884 1009 l 978 1009 l 978 814 l 884 814 m 71 567 q 163 724 125 659 q 237 850 201 789 q 294 944 274 911 q 348 1000 320 983 q 396 1021 376 1017 q 416 1023 416 1024 q 484 1006 457 1020 q 532 960 510 993 q 596 863 548 936 q 707 694 644 789 q 829 509 770 600 q 970 297 888 419 l 970 -95 q 445 713 456 694 q 424 739 431 735 q 416 741 416 742 q 411 738 416 742 q 392 713 406 734 q 344 640 380 697 q 262 505 308 582 q 144 305 217 429 q 71 180 71 182 l 71 567 z "},"ペ":{"ha":1047,"x_min":71,"x_max":1015,"o":"m 71 567 q 163 724 125 659 q 237 850 201 789 q 294 944 274 911 q 348 1000 320 983 q 396 1021 376 1017 q 416 1023 416 1024 q 484 1006 457 1020 q 532 960 510 993 q 596 863 548 936 q 707 694 644 789 q 829 509 770 600 q 970 297 888 419 l 970 -95 q 445 713 456 694 q 424 739 431 735 q 416 741 416 742 q 411 738 416 742 q 392 713 406 734 q 344 640 380 697 q 262 505 308 582 q 144 305 217 429 q 71 180 71 182 l 71 567 m 932 875 q 912 924 932 905 q 864 943 892 943 q 817 924 836 943 q 798 875 798 905 q 817 827 798 846 q 864 808 836 808 q 912 827 892 808 q 932 875 932 846 m 758 982 q 864 1025 802 1025 q 970 981 926 1025 q 1015 875 1015 937 q 970 769 1015 812 q 864 726 926 726 q 758 769 802 726 q 715 875 715 812 q 758 982 715 937 z "},"ホ":{"ha":1038,"x_min":71,"x_max":971,"o":"m 328 623 q 311 241 327 393 q 270 -60 296 90 l 81 -60 q 97 30 83 -57 q 129 269 111 117 q 148 623 146 422 l 328 623 m 713 623 l 895 623 q 910 269 895 422 q 942 30 925 117 q 960 -60 959 -57 l 772 -60 q 730 241 746 90 q 713 623 715 393 m 418 -60 l 418 705 l 71 705 l 71 922 l 418 922 l 418 1077 l 620 1077 l 620 922 l 971 922 l 971 705 l 620 705 l 620 -60 l 418 -60 z "},"ボ":{"ha":1040,"x_min":71,"x_max":971,"o":"m 727 966 l 727 1161 l 821 1161 l 821 966 l 727 966 m 873 966 l 873 1161 l 967 1161 l 967 966 l 873 966 m 328 623 q 311 241 327 393 q 270 -60 296 90 l 81 -60 q 97 30 83 -57 q 129 269 111 117 q 148 623 146 422 l 328 623 m 713 623 l 895 623 q 910 269 895 422 q 942 30 925 117 q 960 -60 959 -57 l 772 -60 q 730 241 746 90 q 713 623 715 393 m 418 -60 l 418 705 l 71 705 l 71 922 l 418 922 l 418 1077 l 620 1077 l 620 922 l 971 922 l 971 705 l 620 705 l 620 -60 l 418 -60 z "},"ポ":{"ha":1043,"x_min":71,"x_max":998,"o":"m 916 994 q 896 1043 916 1024 q 848 1062 876 1062 q 800 1043 819 1062 q 781 994 781 1024 q 800 947 781 966 q 848 928 819 928 q 896 947 876 928 q 916 994 916 966 m 742 1101 q 848 1145 785 1145 q 954 1101 910 1145 q 998 994 998 1057 q 971 907 998 945 l 971 705 l 620 705 l 620 -60 l 418 -60 l 418 705 l 71 705 l 71 922 l 418 922 l 418 1077 l 620 1077 l 620 922 l 716 922 q 699 994 699 955 q 742 1101 699 1057 m 328 623 q 311 241 327 393 q 270 -60 296 90 l 81 -60 q 97 30 83 -57 q 129 269 111 117 q 148 623 146 422 l 328 623 m 713 623 l 895 623 q 910 269 895 422 q 942 30 925 117 q 960 -60 959 -57 l 772 -60 q 730 241 746 90 q 713 623 715 393 z "},"マ":{"ha":1050,"x_min":66,"x_max":959,"o":"m 66 788 l 66 1010 l 959 1010 l 959 787 q 866 524 937 644 q 718 328 795 403 q 582 203 640 254 l 726 -31 l 475 -31 l 84 606 l 336 606 l 475 381 q 574 471 518 408 q 674 616 631 533 q 731 788 718 700 l 66 788 z "},"ミ":{"ha":990,"x_min":77,"x_max":921,"o":"m 897 962 l 897 751 q 671 783 774 773 q 435 795 567 793 l 103 795 l 103 1008 l 435 1008 q 897 962 678 1005 m 854 571 l 854 361 q 629 393 732 382 q 393 404 525 404 l 136 404 l 136 617 l 393 617 q 854 571 636 616 m 921 161 l 921 -49 q 695 -16 799 -27 q 461 -5 591 -5 l 77 -5 l 77 208 l 461 208 q 921 161 704 205 z "},"ム":{"ha":1084,"x_min":72,"x_max":1016,"o":"m 549 1031 q 455 625 503 803 q 369 334 407 446 q 319 193 331 221 l 750 193 q 694 401 731 286 q 605 643 658 515 l 827 643 q 942 312 894 480 q 1016 -20 990 144 l 72 -20 l 72 182 q 170 441 127 321 q 255 712 212 560 q 331 1031 298 864 l 549 1031 z "},"メ":{"ha":994,"x_min":66,"x_max":926,"o":"m 66 -58 l 66 164 q 312 286 206 199 q 486 472 418 372 q 221 671 358 589 l 221 917 q 586 654 446 779 q 656 842 631 754 q 694 983 682 929 q 705 1038 705 1036 l 926 1038 q 862 776 898 891 q 758 524 826 661 q 831 446 789 488 q 911 358 873 403 l 911 18 q 878 63 911 19 q 783 180 844 107 q 644 334 722 254 q 494 172 581 252 q 300 31 408 92 q 66 -58 191 -30 z "},"モ":{"ha":1055,"x_min":72,"x_max":987,"o":"m 113 793 l 113 1010 l 936 1010 l 936 793 l 515 793 l 514 620 l 987 620 l 987 408 l 514 408 q 514 388 514 407 q 513 345 514 369 q 513 304 513 320 q 532 217 515 247 q 608 186 549 187 q 742 187 666 184 q 872 192 818 190 q 928 194 926 194 l 928 -26 q 873 -26 926 -26 q 739 -28 821 -27 q 585 -27 656 -28 q 446 3 513 -26 q 347 103 378 33 q 311 282 316 174 q 310 332 311 302 q 309 384 309 361 q 308 408 308 407 l 72 408 l 72 620 l 307 620 l 307 793 l 113 793 z "},"ャ":{"ha":921,"x_min":65,"x_max":846,"o":"m 65 528 l 65 707 l 186 712 l 165 888 l 343 888 l 363 718 l 846 732 l 846 553 q 760 360 821 441 q 638 233 699 279 q 490 142 578 187 l 490 339 q 565 392 533 362 q 623 458 597 422 q 666 548 648 494 l 385 538 l 460 -77 l 283 -77 l 208 534 l 65 528 z "},"ヤ":{"ha":1050,"x_min":61,"x_max":981,"o":"m 61 642 l 61 852 l 203 859 l 179 1066 l 388 1066 l 412 864 l 981 882 l 981 671 q 878 445 949 540 q 736 296 807 350 q 560 189 665 241 l 560 419 q 649 481 612 446 q 717 559 686 517 q 768 665 747 601 l 438 654 l 526 -71 l 317 -71 l 229 650 l 61 642 z "},"ュ":{"ha":916,"x_min":71,"x_max":852,"o":"m 110 644 l 110 825 l 753 825 l 709 167 l 852 167 l 852 -19 l 71 -19 l 71 167 l 519 167 l 549 644 l 110 644 z "},"ユ":{"ha":1057,"x_min":66,"x_max":986,"o":"m 113 779 l 113 991 l 869 991 l 818 217 l 986 217 l 986 -1 l 66 -1 l 66 217 l 595 217 l 631 779 l 113 779 z "},"ョ":{"ha":899,"x_min":73,"x_max":793,"o":"m 73 659 l 73 840 l 793 840 l 793 -16 l 73 -16 l 73 164 l 608 164 l 608 331 l 102 331 l 102 499 l 608 499 l 608 659 l 73 659 z "},"ヨ":{"ha":1035,"x_min":75,"x_max":922,"o":"m 75 795 l 75 1008 l 922 1008 l 922 0 l 75 0 l 75 213 l 704 213 l 704 410 l 109 410 l 109 608 l 704 608 l 704 795 l 75 795 z "},"ラ":{"ha":1047,"x_min":81,"x_max":960,"o":"m 81 488 l 81 690 l 960 690 q 910 382 960 513 q 768 170 860 252 q 581 42 675 87 q 400 -22 486 -3 q 262 -49 315 -42 q 206 -56 209 -56 l 206 163 q 251 167 208 161 q 361 190 294 172 q 499 243 427 208 q 626 338 571 278 q 705 488 681 397 l 81 488 m 119 818 l 119 1020 l 901 1020 l 901 818 l 119 818 z "},"リ":{"ha":1005,"x_min":129,"x_max":869,"o":"m 129 419 l 129 1055 l 339 1055 l 339 419 l 129 419 m 324 141 q 446 181 395 157 q 543 251 498 205 q 623 372 589 297 q 659 559 658 448 l 659 1055 l 869 1055 l 869 559 q 815 271 868 389 q 675 79 762 152 q 511 -26 589 5 q 380 -71 433 -58 q 324 -83 327 -83 l 324 141 z "},"ル":{"ha":1067,"x_min":52,"x_max":991,"o":"m 991 191 q 840 57 918 106 q 690 -15 761 8 q 572 -44 620 -38 q 522 -49 524 -50 l 522 1031 l 728 1031 l 728 245 q 817 292 772 263 q 902 361 861 321 q 991 454 943 401 l 991 191 m 52 -19 q 127 165 98 79 q 180 371 157 252 q 202 631 202 490 l 202 1016 l 407 1016 l 407 631 q 374 270 406 416 q 312 52 342 123 q 279 -19 282 -19 l 52 -19 z "},"レ":{"ha":1040,"x_min":127,"x_max":986,"o":"m 986 661 q 787 307 897 444 q 564 96 677 170 q 357 -8 452 22 q 127 -45 262 -38 l 127 1031 l 343 1031 l 343 216 q 481 286 399 228 q 633 433 563 345 q 762 661 703 522 l 986 661 z "},"ロ":{"ha":1070,"x_min":106,"x_max":959,"o":"m 736 779 l 327 779 l 327 212 l 736 212 l 736 779 m 959 -1 l 106 -1 l 106 991 l 959 991 l 959 -1 z "},"ヮ":{"ha":939,"x_min":103,"x_max":836,"o":"m 103 331 l 103 840 l 836 840 l 836 608 q 792 340 834 450 q 681 158 750 231 q 539 42 612 85 q 401 -22 467 -1 q 296 -48 336 -42 q 254 -53 256 -54 l 254 132 q 298 138 256 130 q 402 170 340 145 q 519 245 464 194 q 616 386 574 297 q 658 610 658 475 l 658 658 l 285 658 l 285 331 l 103 331 z "},"ワ":{"ha":1082,"x_min":109,"x_max":971,"o":"m 109 412 l 109 1010 l 971 1010 l 971 738 q 920 424 968 553 q 789 209 871 294 q 623 73 708 123 q 460 -2 537 22 q 336 -33 384 -26 q 286 -39 289 -41 l 286 178 q 338 185 289 176 q 460 222 388 194 q 597 312 533 251 q 711 477 662 373 q 762 741 761 582 l 762 798 l 323 798 l 323 412 l 109 412 z "},"ン":{"ha":1036,"x_min":75,"x_max":977,"o":"m 75 793 l 75 1005 l 498 1005 l 498 793 l 75 793 m 977 777 q 795 373 909 529 q 558 132 681 217 q 326 12 435 47 q 146 -29 216 -23 q 75 -34 76 -35 l 75 187 q 130 189 76 186 q 269 217 184 193 q 448 311 354 241 q 621 486 541 380 q 761 777 700 593 l 977 777 z "},"ヴ":{"ha":1036,"x_min":87,"x_max":951,"o":"m 711 939 l 711 1134 l 804 1134 l 804 939 l 711 939 m 857 939 l 857 1134 l 951 1134 l 951 939 l 857 939 m 87 304 l 87 887 l 419 887 l 419 1066 l 601 1066 l 601 887 l 949 887 l 949 673 q 895 365 947 496 q 765 156 844 233 q 601 30 686 79 q 439 -42 515 -19 q 315 -73 362 -65 q 264 -79 267 -80 l 264 129 q 317 136 267 127 q 439 175 366 145 q 586 264 513 205 q 699 424 659 324 q 739 677 738 524 l 739 684 l 296 684 l 296 304 l 87 304 z "},"ヵ":{"ha":878,"x_min":66,"x_max":798,"o":"m 73 540 l 73 720 l 274 720 l 274 882 l 448 882 l 448 720 l 796 720 l 796 543 q 787 166 798 319 q 726 -25 777 14 q 609 -72 674 -64 q 500 -69 547 -77 q 427 -50 453 -61 q 399 -38 400 -39 l 399 144 q 422 134 400 144 q 483 115 445 123 q 570 113 521 106 q 597 129 585 114 q 613 187 609 144 q 622 315 617 231 q 624 540 627 400 l 444 540 q 391 241 442 366 q 258 38 340 115 q 121 -67 175 -39 q 66 -95 66 -95 l 66 114 q 163 193 118 142 q 237 325 209 244 q 269 540 266 406 l 73 540 z "},"ヶ":{"ha":939,"x_min":68,"x_max":876,"o":"m 444 898 q 424 800 435 846 q 399 715 412 754 l 876 715 l 876 530 l 694 530 q 612 250 675 362 q 470 73 548 137 q 323 -27 392 8 q 209 -76 254 -62 q 163 -88 164 -90 l 163 99 q 210 114 165 98 q 317 175 254 130 q 437 305 381 220 q 513 530 492 391 l 320 530 q 205 378 264 435 q 108 296 146 321 q 68 271 69 271 l 68 483 q 93 503 69 481 q 146 574 117 525 q 210 704 176 624 q 260 898 244 784 l 444 898 z "},"ー":{"ha":760,"x_min":68,"x_max":694,"o":"m 68 404 l 68 617 l 694 617 l 694 404 l 68 404 z "},"上":{"ha":1389,"x_min":54,"x_max":1336,"o":"m 760 141 l 1336 141 l 1336 -62 l 54 -62 l 54 141 l 541 141 l 541 1172 l 760 1172 l 760 789 l 1237 789 l 1237 585 l 760 585 l 760 141 z "},"価":{"ha":1389,"x_min":11,"x_max":1331,"o":"m 910 731 l 910 873 l 857 873 l 857 731 l 910 731 m 1131 148 l 1131 556 l 1078 556 l 1078 148 l 1131 148 m 637 556 l 637 148 l 688 148 l 688 556 l 637 556 m 910 556 l 856 556 l 856 148 l 910 148 l 910 556 m 1331 873 l 1100 873 l 1100 731 l 1325 731 l 1325 -91 l 1131 -91 l 1131 -24 l 637 -24 l 637 -99 l 453 -99 l 453 731 l 669 731 l 669 873 l 442 873 l 442 1027 q 359 854 412 955 l 359 -132 l 171 -132 l 171 562 q 113 495 144 528 q 68 597 100 532 q 11 699 35 662 q 175 916 98 787 q 300 1184 252 1046 l 481 1126 q 454 1054 467 1084 l 1331 1054 l 1331 873 z "},"大":{"ha":1389,"x_min":46,"x_max":1352,"o":"m 1318 618 l 846 618 q 1352 65 997 203 q 1203 -126 1268 -11 q 904 90 1025 -45 q 699 416 783 225 q 198 -126 567 56 q 46 46 137 -22 q 373 287 259 142 q 533 618 487 431 l 73 618 l 73 827 l 567 827 q 576 1188 574 907 l 799 1188 q 785 827 796 948 l 1318 827 l 1318 618 z "},"感":{"ha":1389,"x_min":19,"x_max":1355,"o":"m 201 -104 l 34 9 q 198 273 149 100 l 380 209 q 201 -104 317 -8 m 587 502 l 587 559 l 505 559 l 505 502 l 587 502 m 661 64 l 812 64 q 860 83 849 64 q 876 176 871 102 q 1054 107 936 132 q 990 -68 1038 -23 q 831 -114 943 -114 l 635 -114 q 439 -67 488 -114 q 391 106 391 -20 l 391 266 l 578 266 q 530 298 557 281 l 625 377 l 345 377 l 345 684 l 750 684 l 750 488 q 853 568 800 519 q 758 907 789 715 l 330 907 l 330 850 q 167 262 330 454 q 96 329 144 289 q 19 384 47 369 q 120 593 96 475 q 144 853 144 712 l 144 1065 l 739 1065 q 732 1188 734 1146 l 921 1188 q 928 1065 924 1105 l 1006 1065 q 940 1095 974 1081 l 1039 1204 q 1230 1112 1160 1166 l 1190 1065 l 1303 1065 l 1303 907 l 948 907 q 989 738 962 833 q 1058 890 1035 818 l 1245 846 q 1078 541 1184 678 q 1158 488 1119 488 q 1190 525 1180 488 q 1206 650 1200 562 q 1355 563 1274 589 q 1291 359 1336 411 q 1147 308 1245 308 q 952 406 1039 308 q 842 321 892 353 q 750 420 811 362 l 750 377 l 707 377 q 863 244 811 305 l 722 126 q 590 255 686 178 l 590 109 q 602 71 590 79 q 661 64 614 64 m 751 859 l 751 734 l 350 734 l 350 859 l 751 859 m 975 214 l 1145 297 q 1271 149 1213 229 q 1355 1 1329 68 l 1171 -91 q 1095 58 1150 -28 q 975 214 1040 144 z "},"投":{"ha":1389,"x_min":22,"x_max":1374,"o":"m 1015 414 l 784 414 q 902 267 830 332 q 1015 414 972 336 m 1147 601 l 1280 552 q 1072 152 1213 301 q 1374 53 1208 83 q 1241 -130 1305 -14 q 903 12 1046 -81 q 543 -133 765 -75 q 439 52 500 -20 q 743 152 609 81 q 594 370 659 243 l 736 414 l 567 414 l 567 594 l 605 594 q 484 726 533 692 q 528 753 509 738 l 406 753 l 406 568 l 507 589 l 526 414 l 406 378 l 406 79 q 391 -32 406 7 q 338 -94 377 -71 q 111 -129 278 -129 q 57 56 103 -46 q 180 53 106 53 q 208 79 208 54 l 208 317 q 141 299 186 312 q 75 281 96 286 l 22 491 q 208 526 35 494 l 208 753 l 46 753 l 46 939 l 208 939 l 208 1188 l 406 1188 l 406 939 l 534 939 l 534 758 q 616 863 597 806 q 636 994 636 921 l 636 1138 l 1150 1138 l 1150 853 q 1153 814 1150 822 q 1165 807 1156 807 l 1184 807 q 1202 831 1196 807 q 1208 935 1207 856 q 1373 864 1261 891 q 1324 690 1360 738 q 1207 643 1287 643 l 1126 643 q 993 687 1028 643 q 958 850 958 731 l 958 951 l 823 951 q 643 594 812 712 l 1111 594 l 1147 601 z "},"振":{"ha":1389,"x_min":23,"x_max":1374,"o":"m 460 604 l 484 423 q 362 389 427 406 l 362 75 q 349 -33 362 5 q 301 -95 335 -72 q 99 -133 245 -133 q 49 54 92 -47 q 156 53 121 50 q 173 57 168 53 q 178 75 178 61 l 178 339 l 65 308 l 23 502 q 178 534 41 505 l 178 749 l 47 749 l 47 933 l 178 933 l 178 1185 l 362 1185 l 362 933 l 473 933 l 473 749 l 362 749 l 362 579 l 460 604 m 907 111 l 1023 132 q 936 467 966 266 l 907 467 l 907 111 m 1223 453 l 1355 327 q 1273 265 1326 307 q 1195 206 1219 224 q 1374 35 1261 87 q 1307 -42 1343 7 q 1251 -130 1271 -91 q 1057 64 1127 -61 l 1065 -20 q 671 -107 871 -65 l 631 62 q 730 79 673 68 l 730 467 l 697 467 q 522 -130 663 75 q 449 -66 498 -103 q 369 -15 400 -28 q 470 223 434 81 q 513 471 506 365 q 521 716 521 578 l 521 1134 l 1316 1134 l 1316 962 l 707 962 l 707 716 q 705 635 707 665 l 1336 635 l 1336 467 l 1109 467 q 1135 354 1116 427 q 1223 453 1187 406 m 1279 718 l 753 718 l 753 882 l 1279 882 l 1279 718 z "},"欲":{"ha":1389,"x_min":7,"x_max":1383,"o":"m 199 1172 l 399 1115 q 295 916 358 1016 q 167 750 232 817 q 7 887 87 833 q 117 1015 65 937 q 199 1172 168 1092 m 661 444 l 661 80 q 848 352 789 193 q 906 650 906 511 l 906 750 q 806 552 857 625 q 734 602 783 571 q 762 548 747 581 l 661 444 m 473 138 l 473 288 l 330 288 l 330 138 l 473 138 m 271 467 l 581 467 q 437 677 519 582 q 271 467 355 556 m 1103 773 l 1103 648 q 1169 328 1103 499 q 1383 45 1236 156 q 1260 -134 1337 -9 q 1089 76 1157 -61 q 1004 324 1021 213 q 908 79 985 213 q 716 -134 831 -56 q 658 -39 704 -110 l 330 -39 l 330 -115 l 144 -115 l 144 347 l 142 346 q 82 427 122 381 q 11 496 42 472 q 317 882 217 648 l 496 882 q 656 711 578 806 q 746 918 709 792 l 595 825 q 427 1093 549 937 l 582 1184 q 753 944 699 1047 q 799 1190 784 1065 l 1005 1158 q 968 956 990 1053 l 1199 956 l 1227 963 l 1363 929 q 1287 530 1335 719 l 1131 576 q 1157 773 1145 669 l 1103 773 z "},"炭":{"ha":1389,"x_min":16,"x_max":1356,"o":"m 1259 1146 l 1259 812 l 151 812 l 151 1146 l 355 1146 l 355 989 l 587 989 l 587 1188 l 796 1188 l 796 989 l 1042 989 l 1042 1146 l 1259 1146 m 1322 568 l 907 568 q 898 412 901 442 q 928 296 907 343 q 997 200 949 248 q 1133 119 1044 152 q 1356 65 1222 85 q 1290 -29 1324 28 q 1241 -132 1256 -87 q 819 119 933 -65 q 669 -33 768 30 q 404 -137 570 -95 q 359 -46 392 -98 q 294 39 326 5 q 485 98 410 62 q 602 171 560 134 q 666 279 644 208 q 692 404 688 350 q 701 568 697 457 l 357 568 l 357 534 q 342 300 357 415 q 418 395 384 335 q 471 517 453 454 l 646 476 q 490 201 601 297 l 339 283 q 176 -127 300 18 q 99 -52 151 -96 q 16 9 47 -7 q 156 537 156 178 l 156 750 l 1322 750 l 1322 568 m 1115 229 l 954 289 q 1092 526 1042 407 l 1294 461 q 1115 229 1183 305 z "},"無":{"ha":1389,"x_min":26,"x_max":1359,"o":"m 970 728 l 970 872 l 898 872 l 898 728 l 970 728 m 970 406 l 970 548 l 898 548 l 898 406 l 970 406 m 426 548 l 426 406 l 495 406 l 495 548 l 426 548 m 731 548 l 661 548 l 661 406 l 731 406 l 731 548 m 661 728 l 731 728 l 731 872 l 661 872 l 661 728 m 426 872 l 426 728 l 495 728 l 495 872 l 426 872 m 248 728 l 248 787 q 191 738 210 751 q 26 869 125 804 q 190 1010 113 924 q 311 1188 267 1096 l 510 1130 q 465 1048 484 1080 l 1278 1048 l 1278 872 l 1154 872 l 1154 728 l 1328 728 l 1328 548 l 1154 548 l 1154 406 l 1308 406 l 1308 227 l 88 227 l 88 406 l 248 406 l 248 548 l 64 548 l 64 728 l 248 728 m 243 -133 l 47 -56 q 131 62 91 -12 q 195 214 171 137 l 393 167 q 243 -133 345 -12 m 450 159 l 637 180 q 674 -88 673 12 l 475 -117 q 450 159 475 12 m 722 153 l 913 184 q 990 -79 971 41 l 788 -118 q 722 153 777 -12 m 994 160 l 1190 220 q 1359 -64 1308 50 l 1152 -132 q 994 160 1116 -33 z "},"界":{"ha":1389,"x_min":37,"x_max":1362,"o":"m 393 758 l 393 686 l 593 686 l 593 758 l 393 758 m 393 978 l 393 907 l 593 907 l 593 978 l 393 978 m 998 907 l 998 978 l 798 978 l 798 907 l 998 907 m 798 686 l 998 686 l 998 758 l 798 758 l 798 686 m 1210 525 l 1012 525 q 1362 366 1156 416 q 1226 194 1283 294 q 1019 293 1112 231 l 1019 -126 l 807 -126 l 807 368 l 916 368 q 768 525 830 441 l 633 525 q 486 372 566 438 l 602 372 l 602 271 q 277 -141 602 -28 q 216 -57 258 -106 q 138 22 174 -8 q 395 279 395 98 l 395 304 q 170 190 301 240 q 37 355 111 286 q 378 525 233 412 l 191 525 l 191 1139 l 1210 1139 l 1210 525 z "},"直":{"ha":1389,"x_min":73,"x_max":1335,"o":"m 981 658 l 981 703 l 612 703 l 612 658 l 981 658 m 981 483 l 981 529 l 612 529 l 612 483 l 981 483 m 981 308 l 981 354 l 612 354 l 612 308 l 981 308 m 420 842 l 578 842 q 586 898 581 860 l 73 898 l 73 1082 l 605 1082 q 612 1194 610 1165 l 850 1188 q 833 1082 841 1127 l 1318 1082 l 1318 898 l 799 898 l 787 842 l 1180 842 l 1180 170 l 420 170 l 420 842 m 1335 111 l 1335 -75 l 332 -75 l 332 -134 l 132 -134 l 132 798 l 332 798 l 332 111 l 1335 111 z "},"破":{"ha":1389,"x_min":18,"x_max":1352,"o":"m 699 33 q 882 149 803 79 q 762 350 819 232 q 699 33 743 167 m 868 817 l 773 817 l 773 651 l 868 651 l 868 817 m 1100 479 l 884 479 q 1001 285 936 365 q 1100 479 1065 376 m 362 210 l 362 522 l 300 522 l 300 210 l 362 210 m 1200 656 l 1316 618 q 1130 157 1261 339 q 1352 34 1230 77 q 1284 -41 1321 7 q 1227 -127 1246 -90 q 1004 16 1100 -69 q 783 -129 906 -69 q 690 7 751 -64 q 623 -130 665 -62 q 552 -78 600 -109 q 473 -34 505 -47 q 511 35 495 1 l 300 35 l 300 -65 l 129 -65 l 129 327 q 85 275 109 301 q 58 397 80 317 q 18 521 37 477 q 193 951 133 669 l 56 951 l 56 1134 l 553 1134 l 553 951 l 389 951 q 317 697 365 841 l 534 697 l 534 92 q 601 609 601 274 l 601 991 l 868 991 l 868 1188 l 1046 1188 l 1046 991 l 1175 991 l 1204 997 l 1331 974 q 1263 661 1306 792 l 1109 694 q 1133 817 1123 750 l 1046 817 l 1046 651 l 1169 651 l 1200 656 z "},"空":{"ha":1389,"x_min":73,"x_max":1305,"o":"m 743 891 l 648 891 q 616 736 637 799 q 545 612 594 673 q 406 510 495 552 q 180 439 316 468 q 136 528 168 477 q 73 610 104 579 q 257 654 186 629 q 366 718 328 680 q 417 793 403 755 q 439 891 431 830 l 293 891 l 293 741 l 95 741 l 95 1074 l 586 1074 l 586 1188 l 795 1188 l 795 1074 l 1298 1074 l 1298 762 l 1089 762 l 1089 891 l 943 891 l 943 701 q 951 664 943 671 q 987 656 959 656 l 1081 656 q 1113 673 1105 656 q 1124 751 1120 690 q 1203 712 1152 732 q 1297 684 1255 692 q 1239 528 1282 570 q 1101 487 1196 487 l 956 487 q 785 532 827 487 q 743 700 743 576 l 743 891 m 795 84 l 1305 84 l 1305 -98 l 84 -98 l 84 84 l 586 84 l 586 252 l 232 252 l 232 431 l 1190 431 l 1190 252 l 795 252 l 795 84 z "},"突":{"ha":1389,"x_min":33,"x_max":1355,"o":"m 1316 244 l 873 244 q 1355 72 1019 96 q 1284 -22 1321 37 q 1226 -127 1246 -80 q 903 -29 1028 -98 q 696 163 779 39 q 501 -16 633 56 q 136 -129 369 -87 q 94 -35 125 -88 q 33 52 64 18 q 337 126 229 80 q 495 244 445 172 l 71 244 l 71 427 l 557 427 q 568 571 563 472 l 772 571 q 742 718 742 613 l 742 887 l 637 887 q 603 738 625 798 q 530 622 581 678 q 391 527 480 566 q 167 461 302 488 q 123 547 155 498 q 62 627 92 595 q 241 667 172 643 q 348 725 311 690 q 399 795 385 760 q 422 887 414 830 l 292 887 l 292 757 l 90 757 l 90 1066 l 591 1066 l 591 1188 l 800 1188 l 800 1066 l 1306 1066 l 1306 784 l 1092 784 l 1092 887 l 941 887 l 941 719 q 949 683 941 689 q 983 677 956 677 l 1067 677 q 1099 694 1090 677 q 1111 772 1107 712 q 1279 707 1175 728 q 1224 555 1265 595 q 1090 515 1183 515 l 949 515 q 785 557 831 515 q 773 427 781 488 l 1316 427 l 1316 244 z "},"縦":{"ha":1389,"x_min":9,"x_max":1373,"o":"m 1145 1184 l 1337 1150 q 1241 842 1270 917 l 1084 876 q 1145 1184 1130 1035 m 963 553 l 963 357 l 963 298 q 1005 176 978 235 l 1005 662 l 815 662 l 815 826 q 749 699 792 773 l 749 39 q 814 361 814 164 l 814 553 l 963 553 m 275 583 l 354 585 q 327 654 340 621 q 275 583 316 637 m 1175 328 l 1175 52 q 1221 49 1204 49 q 1293 50 1234 49 q 1373 50 1352 50 q 1343 -31 1358 22 q 1325 -119 1329 -83 l 1206 -119 q 922 26 1016 -119 q 848 -127 895 -62 q 749 -39 814 -85 l 749 -130 l 581 -130 l 581 481 l 570 471 q 525 543 556 499 q 556 420 551 464 l 412 362 q 400 433 408 396 l 368 429 l 368 323 l 487 357 q 559 90 540 194 l 416 45 q 368 269 404 129 l 368 -132 l 201 -132 l 201 164 q 149 -27 179 46 q 9 38 92 8 q 72 358 57 141 l 201 336 l 201 415 l 56 404 l 23 581 l 111 581 q 170 669 146 632 q 30 845 114 757 l 115 991 l 137 971 q 209 1185 189 1104 l 380 1133 q 244 854 288 936 q 264 827 255 841 q 354 1006 321 929 l 468 956 q 624 1188 566 1058 l 787 1135 q 576 814 696 943 q 494 907 544 857 q 351 689 410 774 l 450 727 q 490 637 473 681 q 674 910 612 755 l 830 861 l 821 838 l 895 838 q 822 1122 880 978 l 978 1172 q 1062 886 1044 1029 l 922 838 l 1335 838 l 1335 662 l 1175 662 l 1175 500 l 1322 500 l 1322 328 l 1175 328 z "},"缶":{"ha":1389,"x_min":65,"x_max":1324,"o":"m 259 644 l 589 644 l 589 819 l 389 819 q 259 644 326 712 m 798 448 l 798 133 l 1017 133 l 1017 388 l 1225 388 l 1225 -125 l 1017 -125 l 1017 -61 l 372 -61 l 372 -132 l 170 -132 l 170 388 l 372 388 l 372 133 l 589 133 l 589 448 l 66 448 l 66 644 l 254 644 q 65 770 161 720 q 212 954 148 840 q 309 1199 275 1067 l 530 1152 q 484 1015 521 1116 l 1225 1015 l 1225 819 l 798 819 l 798 644 l 1324 644 l 1324 448 l 798 448 z "},"羽":{"ha":1389,"x_min":15,"x_max":1293,"o":"m 644 1115 l 644 110 q 625 -13 644 30 q 559 -80 606 -56 q 270 -117 486 -117 q 245 -18 264 -76 q 203 81 225 41 q 407 77 320 73 q 445 113 445 77 l 445 312 q 88 117 248 202 l 15 302 q 445 511 122 349 l 445 922 l 79 922 l 79 1115 l 644 1115 m 68 746 l 229 838 q 397 617 334 720 l 231 507 q 68 746 178 605 m 1293 1115 l 1293 110 q 1272 -16 1293 28 q 1203 -84 1252 -60 q 902 -122 1127 -122 q 831 81 888 -31 q 1047 77 951 73 q 1086 114 1086 77 l 1086 334 q 761 149 928 241 l 661 335 q 1086 534 773 382 l 1086 922 l 701 922 l 701 1115 l 1293 1115 m 694 751 l 853 849 q 1034 633 963 735 l 869 517 q 694 751 811 614 z "},"記":{"ha":1389,"x_min":35,"x_max":1362,"o":"m 564 1147 l 564 997 l 113 997 l 113 1147 l 564 1147 m 381 214 l 273 214 l 273 96 l 381 96 l 381 214 m 557 370 l 557 -61 l 273 -61 l 273 -111 l 99 -111 l 99 370 l 557 370 m 104 416 l 104 567 l 562 567 l 562 416 l 104 416 m 104 609 l 104 758 l 562 758 l 562 609 l 104 609 m 35 800 l 35 958 l 617 958 l 617 800 l 35 800 m 939 68 l 1099 68 q 1154 103 1141 68 q 1175 263 1168 138 q 1262 216 1206 240 q 1362 183 1318 193 q 1293 -58 1344 7 q 1115 -122 1241 -122 l 911 -122 q 716 -68 769 -122 q 663 137 663 -15 l 663 675 l 1084 675 l 1084 930 l 667 930 l 667 1122 l 1286 1122 l 1286 418 l 1084 418 l 1084 484 l 868 484 l 868 138 q 880 80 868 92 q 939 68 892 68 z "},"評":{"ha":1389,"x_min":35,"x_max":1352,"o":"m 538 1147 l 538 997 l 107 997 l 107 1147 l 538 1147 m 591 958 l 591 800 l 35 800 l 35 958 l 591 958 m 366 214 l 267 214 l 267 96 l 366 96 l 366 214 m 538 370 l 538 -61 l 267 -61 l 267 -111 l 98 -111 l 98 370 l 538 370 m 103 416 l 103 567 l 541 567 l 541 416 l 103 416 m 103 609 l 103 758 l 541 758 l 541 609 l 103 609 m 1352 519 l 1352 330 l 1057 330 l 1057 -130 l 859 -130 l 859 330 l 571 330 l 571 519 l 859 519 l 859 936 l 616 936 l 616 1123 l 1329 1123 l 1329 936 l 1057 936 l 1057 519 l 1352 519 m 618 857 l 777 890 q 833 581 823 719 l 663 543 q 618 857 661 674 m 1230 545 l 1077 583 q 1143 903 1126 742 l 1333 865 q 1230 545 1255 606 z "},"酸":{"ha":1389,"x_min":58,"x_max":1379,"o":"m 636 224 l 636 31 q 852 117 758 61 q 792 199 806 174 q 713 144 762 175 q 636 224 680 186 m 212 111 l 484 111 l 484 165 l 212 165 l 212 111 m 331 966 l 331 873 l 372 873 l 372 966 l 331 966 m 452 708 l 452 541 q 460 522 452 522 l 468 522 q 484 525 479 522 l 484 708 l 452 708 m 335 708 l 335 606 q 273 377 335 452 q 212 429 252 399 l 212 315 l 484 315 l 484 429 l 483 429 l 448 429 q 382 451 399 429 q 365 540 365 473 l 365 708 l 335 708 m 248 708 l 212 708 l 212 445 q 248 609 248 498 l 248 708 m 1066 321 l 914 321 l 913 320 q 987 221 944 266 q 1066 321 1035 269 m 1184 469 l 1301 425 q 1127 117 1245 244 q 1379 31 1234 57 q 1263 -130 1310 -34 q 982 -5 1100 -90 q 704 -129 869 -79 q 636 -11 686 -85 l 636 -107 l 484 -107 l 484 -43 l 212 -43 l 212 -126 l 66 -126 l 66 873 l 203 873 l 203 966 l 58 966 l 58 1131 l 628 1131 l 628 966 l 503 966 l 503 873 l 636 873 l 636 640 q 728 707 703 667 q 761 810 754 746 l 655 806 l 644 975 l 747 978 q 826 1195 800 1095 l 1024 1139 q 978 1055 1009 1109 q 937 982 947 1000 l 1101 987 q 1053 1051 1074 1023 l 1198 1119 q 1379 857 1326 968 l 1225 780 q 1202 830 1217 803 l 1156 827 l 1156 713 q 1158 684 1156 689 q 1172 680 1161 680 l 1199 680 q 1217 695 1211 680 q 1223 766 1222 711 q 1369 707 1272 730 q 1324 569 1358 606 q 1221 532 1291 532 l 1142 532 q 1017 570 1047 532 q 986 712 986 608 l 986 819 l 933 818 q 873 614 921 692 q 701 491 825 537 q 636 595 685 532 l 636 305 q 859 575 793 406 l 1038 533 q 1006 464 1021 495 l 1154 464 l 1184 469 z "},"録":{"ha":1389,"x_min":7,"x_max":1375,"o":"m 75 358 l 199 391 q 245 161 235 266 l 114 125 q 75 358 110 210 m 233 841 l 476 841 q 345 1000 422 920 q 233 841 290 910 m 1198 293 l 1133 336 q 1375 99 1230 171 q 1246 -66 1297 27 q 1051 156 1137 7 l 1051 53 q 1039 -47 1051 -11 q 993 -102 1027 -83 q 811 -132 941 -132 q 765 41 806 -58 q 848 39 796 39 q 865 57 865 39 l 865 122 q 639 -39 746 31 l 579 65 l 586 -11 q 92 -110 327 -65 l 54 72 q 157 87 85 76 q 245 102 229 99 l 245 429 l 71 429 l 71 598 l 245 598 l 245 674 l 133 674 l 133 735 l 126 728 q 71 800 107 760 q 7 860 34 841 q 237 1188 160 991 l 399 1188 q 632 952 562 1053 l 538 841 l 553 841 l 553 674 l 418 674 l 418 598 l 578 598 l 578 429 l 418 429 l 418 197 q 458 400 448 307 l 600 366 q 565 254 587 327 q 534 156 543 182 l 418 186 l 418 129 l 572 156 l 574 137 q 821 286 642 175 l 865 176 l 865 570 l 593 570 l 593 739 l 1054 739 l 1054 783 l 689 783 l 689 933 l 1054 933 l 1054 982 l 656 982 l 656 1146 l 1240 1146 l 1240 739 l 1337 739 l 1337 570 l 1051 570 l 1051 517 q 1096 403 1063 475 q 1204 555 1164 483 l 1362 458 q 1198 293 1237 327 m 857 365 l 716 273 q 587 452 685 351 l 718 536 q 857 365 821 444 z "},"長":{"ha":1389,"x_min":60,"x_max":1358,"o":"m 1095 359 l 845 359 q 933 247 879 301 q 1095 359 1020 300 m 1184 359 l 1297 281 q 1077 141 1200 212 q 1358 49 1198 76 q 1230 -133 1282 -26 q 861 39 1002 -80 q 631 359 720 159 l 494 359 l 494 104 q 758 140 670 129 l 768 -38 q 163 -125 526 -75 l 118 60 q 194 67 137 61 q 285 77 251 73 l 285 359 l 60 359 l 60 536 l 286 536 l 286 1145 l 1176 1145 l 1176 981 l 494 981 l 494 933 l 1142 933 l 1142 779 l 494 779 l 494 735 l 1142 735 l 1142 581 l 494 581 l 494 536 l 1329 536 l 1329 359 l 1184 359 z "},"限":{"ha":1389,"x_min":96,"x_max":1363,"o":"m 283 948 l 283 334 l 317 334 q 355 345 340 334 q 377 415 377 362 q 293 643 377 537 q 361 948 327 774 l 283 948 m 446 1135 l 583 1057 q 467 663 495 745 q 559 388 559 541 q 488 193 559 244 q 404 160 457 170 q 312 156 380 156 q 283 304 309 233 l 283 -133 l 96 -133 l 96 1127 l 418 1127 l 446 1135 m 1175 457 l 1044 457 q 1084 346 1059 404 q 1175 457 1138 404 m 799 712 l 799 629 l 1063 629 l 1063 712 l 799 712 m 1063 952 l 799 952 l 799 875 l 1063 875 l 1063 952 m 1180 457 l 1335 351 q 1166 198 1251 269 q 1363 43 1241 99 q 1291 -37 1331 14 q 1232 -127 1252 -88 q 1001 96 1085 -49 q 869 457 917 240 l 799 457 l 799 136 q 881 151 826 141 q 963 164 936 160 l 978 -11 q 532 -110 780 -58 l 465 85 q 530 95 484 88 q 602 106 575 102 l 602 1124 l 1264 1124 l 1264 457 l 1180 457 z "},"駄":{"ha":1389,"x_min":27,"x_max":1373,"o":"m 141 -45 l 27 -4 q 94 302 73 122 l 201 270 q 141 -45 174 54 m 213 273 l 297 281 q 309 23 317 149 l 220 12 q 213 273 229 133 m 429 68 l 340 52 q 305 279 338 144 l 389 293 q 429 68 425 171 m 275 564 l 275 503 l 340 503 l 340 564 l 275 564 m 340 979 l 275 979 l 275 924 l 340 924 l 340 979 m 340 713 l 340 773 l 275 773 l 275 713 l 340 713 m 1355 642 l 1131 642 q 1373 33 1208 213 q 1222 -132 1280 -39 q 1010 354 1089 33 q 936 148 979 241 l 993 182 q 1130 -11 1086 76 l 971 -117 q 880 38 943 -49 q 762 -126 821 -61 q 636 -18 718 -75 q 612 -68 625 -53 q 513 -122 572 -114 q 372 -127 465 -130 q 327 26 366 -43 q 423 22 369 22 q 465 41 450 22 q 490 127 480 58 l 456 115 q 399 294 442 195 l 475 317 q 505 252 492 283 q 507 297 505 264 q 510 349 509 330 l 104 349 l 104 1141 l 656 1141 l 656 979 l 505 979 l 505 924 l 629 924 l 629 773 l 505 773 l 505 713 l 629 713 l 629 564 l 505 564 l 505 503 l 688 503 q 684 438 686 458 q 655 72 671 195 q 876 642 840 300 l 667 642 l 667 827 l 884 827 l 884 1191 l 1082 1191 l 1082 827 l 1355 827 l 1355 642 z "},"！":{"ha":1389,"x_min":553,"x_max":836,"o":"m 553 1015 l 836 1015 l 802 320 l 587 320 l 553 1015 m 574 0 l 574 209 l 815 209 l 815 0 l 574 0 z "},"？":{"ha":1389,"x_min":296,"x_max":1088,"o":"m 296 975 q 697 1028 486 1028 q 985 960 882 1028 q 1088 783 1088 891 q 1074 690 1088 731 q 1027 617 1059 650 q 970 568 994 585 q 901 519 947 551 q 842 480 861 495 q 794 440 822 465 q 754 386 766 415 q 739 323 742 357 l 521 323 q 538 422 521 377 q 590 503 555 467 q 650 560 625 540 q 722 613 675 581 q 783 656 762 640 q 822 699 803 673 q 841 750 841 724 q 662 842 841 842 q 338 789 518 842 l 296 975 m 510 0 l 510 209 l 750 209 l 750 0 l 510 0 z "}}}
